M48
;Layer_Color=9474304
;FILE_FORMAT=4:3
METRIC,LZ
;TYPE=PLATED
T1F00S00C0.300
T2F00S00C1.000
%
T01
X00345Y0037
X00445
X00545
X00645
X00745
X00845
X00945
X01045
X01075Y00365
Y00355
X0113Y0039
X0123
X01275Y0037
X01175Y0041
T02
X007037Y0027
X007291
X007545
X007799
X008053
X008307
X008561
X008815
X009069
X009323
M30
