G04*
G04 #@! TF.GenerationSoftware,Altium Limited,Altium Designer,24.1.2 (44)*
G04*
G04 Layer_Color=16711833*
%FSLAX44Y44*%
%MOMM*%
G71*
G04*
G04 #@! TF.SameCoordinates,4F868512-D97F-4151-AA10-91EEB4B24D68*
G04*
G04*
G04 #@! TF.FilePolarity,Negative*
G04*
G01*
G75*
G04:AMPARAMS|DCode=12|XSize=0.7mm|YSize=1mm|CornerRadius=0.125mm|HoleSize=0mm|Usage=FLASHONLY|Rotation=90.000|XOffset=0mm|YOffset=0mm|HoleType=Round|Shape=RoundedRectangle|*
%AMROUNDEDRECTD12*
21,1,0.7000,0.7500,0,0,90.0*
21,1,0.4500,1.0000,0,0,90.0*
1,1,0.2500,0.3750,0.2250*
1,1,0.2500,0.3750,-0.2250*
1,1,0.2500,-0.3750,-0.2250*
1,1,0.2500,-0.3750,0.2250*
%
%ADD12ROUNDEDRECTD12*%
G04:AMPARAMS|DCode=13|XSize=1.7mm|YSize=1.1mm|CornerRadius=0.175mm|HoleSize=0mm|Usage=FLASHONLY|Rotation=270.000|XOffset=0mm|YOffset=0mm|HoleType=Round|Shape=RoundedRectangle|*
%AMROUNDEDRECTD13*
21,1,1.7000,0.7500,0,0,270.0*
21,1,1.3500,1.1000,0,0,270.0*
1,1,0.3500,-0.3750,-0.6750*
1,1,0.3500,-0.3750,0.6750*
1,1,0.3500,0.3750,0.6750*
1,1,0.3500,0.3750,-0.6750*
%
%ADD13ROUNDEDRECTD13*%
G04:AMPARAMS|DCode=14|XSize=1.7mm|YSize=1.1mm|CornerRadius=0.175mm|HoleSize=0mm|Usage=FLASHONLY|Rotation=180.000|XOffset=0mm|YOffset=0mm|HoleType=Round|Shape=RoundedRectangle|*
%AMROUNDEDRECTD14*
21,1,1.7000,0.7500,0,0,180.0*
21,1,1.3500,1.1000,0,0,180.0*
1,1,0.3500,-0.6750,0.3750*
1,1,0.3500,0.6750,0.3750*
1,1,0.3500,0.6750,-0.3750*
1,1,0.3500,-0.6750,-0.3750*
%
%ADD14ROUNDEDRECTD14*%
%ADD15R,0.9000X1.0000*%
%ADD16R,1.0000X0.9000*%
%ADD17R,0.4250X0.4000*%
%ADD18R,0.4000X0.4250*%
G04:AMPARAMS|DCode=19|XSize=0.65mm|YSize=0.4mm|CornerRadius=0.125mm|HoleSize=0mm|Usage=FLASHONLY|Rotation=0.000|XOffset=0mm|YOffset=0mm|HoleType=Round|Shape=RoundedRectangle|*
%AMROUNDEDRECTD19*
21,1,0.6500,0.1500,0,0,0.0*
21,1,0.4000,0.4000,0,0,0.0*
1,1,0.2500,0.2000,-0.0750*
1,1,0.2500,-0.2000,-0.0750*
1,1,0.2500,-0.2000,0.0750*
1,1,0.2500,0.2000,0.0750*
%
%ADD19ROUNDEDRECTD19*%
G04:AMPARAMS|DCode=20|XSize=0.65mm|YSize=0.4mm|CornerRadius=0.125mm|HoleSize=0mm|Usage=FLASHONLY|Rotation=90.000|XOffset=0mm|YOffset=0mm|HoleType=Round|Shape=RoundedRectangle|*
%AMROUNDEDRECTD20*
21,1,0.6500,0.1500,0,0,90.0*
21,1,0.4000,0.4000,0,0,90.0*
1,1,0.2500,0.0750,0.2000*
1,1,0.2500,0.0750,-0.2000*
1,1,0.2500,-0.0750,-0.2000*
1,1,0.2500,-0.0750,0.2000*
%
%ADD20ROUNDEDRECTD20*%
G04:AMPARAMS|DCode=21|XSize=1mm|YSize=0.9mm|CornerRadius=0.25mm|HoleSize=0mm|Usage=FLASHONLY|Rotation=180.000|XOffset=0mm|YOffset=0mm|HoleType=Round|Shape=RoundedRectangle|*
%AMROUNDEDRECTD21*
21,1,1.0000,0.4000,0,0,180.0*
21,1,0.5000,0.9000,0,0,180.0*
1,1,0.5000,-0.2500,0.2000*
1,1,0.5000,0.2500,0.2000*
1,1,0.5000,0.2500,-0.2000*
1,1,0.5000,-0.2500,-0.2000*
%
%ADD21ROUNDEDRECTD21*%
G04:AMPARAMS|DCode=22|XSize=1mm|YSize=0.9mm|CornerRadius=0.25mm|HoleSize=0mm|Usage=FLASHONLY|Rotation=90.000|XOffset=0mm|YOffset=0mm|HoleType=Round|Shape=RoundedRectangle|*
%AMROUNDEDRECTD22*
21,1,1.0000,0.4000,0,0,90.0*
21,1,0.5000,0.9000,0,0,90.0*
1,1,0.5000,0.2000,0.2500*
1,1,0.5000,0.2000,-0.2500*
1,1,0.5000,-0.2000,-0.2500*
1,1,0.5000,-0.2000,0.2500*
%
%ADD22ROUNDEDRECTD22*%
%ADD23R,1.2000X1.4000*%
G04:AMPARAMS|DCode=24|XSize=0.7mm|YSize=1mm|CornerRadius=0.125mm|HoleSize=0mm|Usage=FLASHONLY|Rotation=180.000|XOffset=0mm|YOffset=0mm|HoleType=Round|Shape=RoundedRectangle|*
%AMROUNDEDRECTD24*
21,1,0.7000,0.7500,0,0,180.0*
21,1,0.4500,1.0000,0,0,180.0*
1,1,0.2500,-0.2250,0.3750*
1,1,0.2500,0.2250,0.3750*
1,1,0.2500,0.2250,-0.3750*
1,1,0.2500,-0.2250,-0.3750*
%
%ADD24ROUNDEDRECTD24*%
%ADD25C,1.1000*%
%ADD26C,3.1000*%
G36*
X483487Y486994D02*
X483497Y486993D01*
X483591Y486964D01*
X483867Y486850D01*
X483954Y486804D01*
X484030Y486741D01*
X484241Y486530D01*
X484304Y486454D01*
X484350Y486367D01*
X484464Y486091D01*
X484493Y485997D01*
X484502Y485899D01*
Y485899D01*
D01*
Y485750D01*
X484502Y485750D01*
Y485000D01*
X484493Y484902D01*
X484464Y484808D01*
X484418Y484721D01*
X484355Y484645D01*
X484355Y484645D01*
X482855Y483145D01*
X482779Y483082D01*
X482692Y483036D01*
X482670Y483029D01*
X482598Y483007D01*
X482549Y483002D01*
X482500Y482998D01*
X482500Y482998D01*
X479250D01*
X479250Y482998D01*
X479101D01*
X479013Y483006D01*
X479003Y483007D01*
X478909Y483036D01*
X478633Y483150D01*
X478546Y483196D01*
X478470Y483259D01*
X478259Y483470D01*
X478196Y483546D01*
X478150Y483633D01*
X478036Y483909D01*
X478007Y484003D01*
Y484003D01*
X478007Y484003D01*
X478001Y484062D01*
X477998Y484101D01*
Y484101D01*
Y484101D01*
X477998Y484250D01*
Y485750D01*
X477998Y485750D01*
Y485899D01*
X478006Y485987D01*
X478007Y485997D01*
X478036Y486091D01*
X478150Y486367D01*
X478196Y486454D01*
X478259Y486530D01*
X478470Y486741D01*
X478546Y486804D01*
X478633Y486850D01*
X478909Y486964D01*
X479003Y486993D01*
X479101Y487002D01*
D01*
X479101D01*
X483399D01*
X483487Y486994D01*
D02*
G37*
G36*
X485997Y484493D02*
X486091Y484464D01*
X486367Y484350D01*
X486454Y484304D01*
X486530Y484241D01*
X486741Y484030D01*
X486804Y483954D01*
X486850Y483867D01*
X486964Y483591D01*
X486993Y483497D01*
X486994Y483487D01*
X487002Y483399D01*
Y483250D01*
Y479250D01*
Y479101D01*
Y479101D01*
D01*
X486993Y479003D01*
X486964Y478909D01*
X486850Y478633D01*
X486804Y478546D01*
X486741Y478470D01*
X486530Y478259D01*
X486454Y478196D01*
X486367Y478150D01*
X486091Y478036D01*
X485997Y478007D01*
X485987Y478006D01*
X485899Y477998D01*
X485750D01*
X485750Y477998D01*
X485749Y477998D01*
X484250D01*
X484250Y477998D01*
X484101D01*
X484101D01*
D01*
X484003Y478007D01*
X483909Y478036D01*
X483633Y478150D01*
X483546Y478196D01*
X483470Y478259D01*
X483259Y478470D01*
X483196Y478546D01*
X483150Y478633D01*
X483036Y478909D01*
X483007Y479003D01*
X483006Y479013D01*
X482998Y479101D01*
Y479250D01*
X482998Y479250D01*
Y482500D01*
X482998Y482500D01*
X483002Y482549D01*
X483007Y482598D01*
X483029Y482670D01*
X483036Y482692D01*
X483082Y482779D01*
X483145Y482855D01*
X484645Y484355D01*
X484645Y484355D01*
X484721Y484418D01*
X484808Y484464D01*
X484902Y484493D01*
X485000Y484502D01*
X485750D01*
X485750Y484502D01*
X485899D01*
X485899D01*
D01*
X485997Y484493D01*
D02*
G37*
G36*
X485987Y521994D02*
X485997Y521993D01*
X486091Y521964D01*
X486367Y521850D01*
X486454Y521804D01*
X486530Y521741D01*
X486741Y521530D01*
X486804Y521454D01*
X486850Y521367D01*
X486964Y521091D01*
X486993Y520997D01*
X487002Y520899D01*
D01*
Y520899D01*
Y520750D01*
Y516750D01*
Y516601D01*
X486994Y516513D01*
X486993Y516503D01*
X486964Y516409D01*
X486850Y516133D01*
X486804Y516046D01*
X486741Y515970D01*
X486530Y515759D01*
X486454Y515696D01*
X486367Y515650D01*
X486091Y515536D01*
X485997Y515507D01*
X485899Y515498D01*
D01*
X485899D01*
X485750D01*
X485749Y515498D01*
X485000D01*
X484902Y515507D01*
X484808Y515536D01*
X484721Y515582D01*
X484645Y515645D01*
X484645Y515645D01*
X483145Y517145D01*
X483082Y517221D01*
X483036Y517308D01*
X483029Y517330D01*
X483007Y517402D01*
X483002Y517451D01*
X482998Y517500D01*
X482998Y517500D01*
Y520750D01*
X482998Y520750D01*
Y520899D01*
X483006Y520987D01*
X483007Y520997D01*
X483036Y521091D01*
X483150Y521367D01*
X483196Y521454D01*
X483259Y521530D01*
X483470Y521741D01*
X483546Y521804D01*
X483633Y521850D01*
X483909Y521964D01*
X484003Y521993D01*
X484003D01*
X484003Y521993D01*
X484062Y521999D01*
X484101Y522002D01*
X484101D01*
X484101D01*
X484250Y522002D01*
X485750D01*
X485750Y522002D01*
X485899D01*
X485987Y521994D01*
D02*
G37*
G36*
X482549Y516998D02*
X482598Y516993D01*
X482670Y516971D01*
X482692Y516964D01*
X482779Y516918D01*
X482855Y516855D01*
X484355Y515355D01*
X484355Y515355D01*
X484418Y515279D01*
X484464Y515192D01*
X484493Y515098D01*
X484502Y515000D01*
Y514250D01*
X484502Y514250D01*
Y514101D01*
D01*
Y514101D01*
X484493Y514003D01*
X484464Y513909D01*
X484350Y513633D01*
X484304Y513546D01*
X484241Y513470D01*
X484030Y513259D01*
X483954Y513196D01*
X483867Y513150D01*
X483591Y513036D01*
X483497Y513007D01*
X483487Y513006D01*
X483399Y512998D01*
X479101D01*
X479101D01*
D01*
X479003Y513007D01*
X478909Y513036D01*
X478633Y513150D01*
X478546Y513196D01*
X478470Y513259D01*
X478259Y513470D01*
X478196Y513546D01*
X478150Y513633D01*
X478036Y513909D01*
X478007Y514003D01*
X478006Y514013D01*
X477998Y514101D01*
Y514250D01*
X477998Y514250D01*
X477998Y514250D01*
Y515750D01*
X477998Y515750D01*
Y515899D01*
D01*
Y515899D01*
X478007Y515997D01*
X478036Y516091D01*
X478150Y516367D01*
X478196Y516454D01*
X478259Y516530D01*
X478470Y516741D01*
X478546Y516804D01*
X478633Y516850D01*
X478909Y516964D01*
X479003Y516993D01*
X479013Y516994D01*
X479101Y517002D01*
X479250D01*
X479250Y517002D01*
X482500D01*
X482500Y517002D01*
X482549Y516998D01*
D02*
G37*
G36*
X520997Y486993D02*
X521091Y486964D01*
X521367Y486850D01*
X521454Y486804D01*
X521530Y486741D01*
X521741Y486530D01*
X521804Y486454D01*
X521850Y486367D01*
X521964Y486091D01*
X521993Y485997D01*
X521994Y485987D01*
X522002Y485899D01*
Y485750D01*
X522002Y485750D01*
Y484250D01*
X522002Y484250D01*
Y484101D01*
D01*
Y484101D01*
X521993Y484003D01*
X521964Y483909D01*
X521850Y483633D01*
X521804Y483546D01*
X521741Y483470D01*
X521530Y483259D01*
X521454Y483196D01*
X521367Y483150D01*
X521091Y483036D01*
X520997Y483007D01*
X520987Y483006D01*
X520899Y482998D01*
X520750D01*
X520750Y482998D01*
X517500D01*
X517500Y482998D01*
X517451Y483002D01*
X517402Y483007D01*
X517330Y483029D01*
X517308Y483036D01*
X517221Y483082D01*
X517145Y483145D01*
X515645Y484645D01*
X515645Y484645D01*
X515582Y484721D01*
X515536Y484808D01*
X515507Y484902D01*
X515498Y485000D01*
Y485750D01*
X515498Y485750D01*
Y485899D01*
D01*
Y485899D01*
X515507Y485997D01*
X515536Y486091D01*
X515650Y486367D01*
X515696Y486454D01*
X515759Y486530D01*
X515970Y486741D01*
X516046Y486804D01*
X516133Y486850D01*
X516409Y486964D01*
X516503Y486993D01*
X516513Y486994D01*
X516601Y487002D01*
X520899D01*
X520899D01*
D01*
X520997Y486993D01*
D02*
G37*
G36*
X514250Y484502D02*
X515000D01*
X515098Y484493D01*
X515192Y484464D01*
X515279Y484418D01*
X515355Y484355D01*
X515355Y484355D01*
X516855Y482855D01*
X516918Y482779D01*
X516964Y482692D01*
X516971Y482670D01*
X516993Y482598D01*
X516998Y482549D01*
X517002Y482500D01*
X517002Y482500D01*
Y479250D01*
X517002Y479250D01*
Y479101D01*
X516994Y479013D01*
X516993Y479003D01*
X516964Y478909D01*
X516850Y478633D01*
X516804Y478546D01*
X516741Y478470D01*
X516530Y478259D01*
X516454Y478196D01*
X516367Y478150D01*
X516091Y478036D01*
X515997Y478007D01*
X515997D01*
X515997Y478007D01*
X515938Y478001D01*
X515899Y477998D01*
X515899D01*
X515899D01*
X515750Y477998D01*
X514250D01*
X514250Y477998D01*
X514101D01*
X514013Y478006D01*
X514003Y478007D01*
X513909Y478036D01*
X513633Y478150D01*
X513546Y478196D01*
X513470Y478259D01*
X513259Y478470D01*
X513196Y478546D01*
X513150Y478633D01*
X513036Y478909D01*
X513007Y479003D01*
X512998Y479101D01*
D01*
Y479101D01*
Y479250D01*
Y483250D01*
Y483399D01*
X513006Y483487D01*
X513007Y483497D01*
X513036Y483591D01*
X513150Y483867D01*
X513196Y483954D01*
X513259Y484030D01*
X513470Y484241D01*
X513546Y484304D01*
X513633Y484350D01*
X513909Y484464D01*
X514003Y484493D01*
X514101Y484502D01*
D01*
X514101D01*
X514250D01*
X514250Y484502D01*
D02*
G37*
G36*
X515938Y521999D02*
X515997Y521993D01*
X515997Y521993D01*
X515997D01*
X516091Y521964D01*
X516367Y521850D01*
X516454Y521804D01*
X516530Y521741D01*
X516741Y521530D01*
X516804Y521454D01*
X516850Y521367D01*
X516964Y521091D01*
X516993Y520997D01*
X516994Y520987D01*
X517002Y520899D01*
Y520750D01*
X517002Y520750D01*
Y517500D01*
X517002Y517500D01*
X516998Y517451D01*
X516993Y517402D01*
X516971Y517330D01*
X516964Y517308D01*
X516918Y517221D01*
X516855Y517145D01*
X515355Y515645D01*
X515355Y515645D01*
X515279Y515582D01*
X515192Y515536D01*
X515098Y515507D01*
X515000Y515498D01*
X514250D01*
X514250Y515498D01*
X514101D01*
X514101D01*
D01*
X514003Y515507D01*
X513909Y515536D01*
X513633Y515650D01*
X513546Y515696D01*
X513470Y515759D01*
X513259Y515970D01*
X513196Y516046D01*
X513150Y516133D01*
X513036Y516409D01*
X513007Y516503D01*
X513006Y516513D01*
X512998Y516601D01*
Y516750D01*
Y520750D01*
Y520899D01*
Y520899D01*
D01*
X513007Y520997D01*
X513036Y521091D01*
X513150Y521367D01*
X513196Y521454D01*
X513259Y521530D01*
X513470Y521741D01*
X513546Y521804D01*
X513633Y521850D01*
X513909Y521964D01*
X514003Y521993D01*
X514013Y521994D01*
X514101Y522002D01*
X514250D01*
X514250Y522002D01*
X515750D01*
X515899Y522002D01*
X515899D01*
X515899D01*
X515938Y521999D01*
D02*
G37*
G36*
X520987Y516994D02*
X520997Y516993D01*
X521091Y516964D01*
X521367Y516850D01*
X521454Y516804D01*
X521530Y516741D01*
X521741Y516530D01*
X521804Y516454D01*
X521850Y516367D01*
X521964Y516091D01*
X521993Y515997D01*
Y515997D01*
X521993Y515997D01*
X521999Y515938D01*
X522002Y515899D01*
Y515899D01*
Y515899D01*
X522002Y515750D01*
Y514250D01*
X522002Y514250D01*
Y514101D01*
X521994Y514013D01*
X521993Y514003D01*
X521964Y513909D01*
X521850Y513633D01*
X521804Y513546D01*
X521741Y513470D01*
X521530Y513259D01*
X521454Y513196D01*
X521367Y513150D01*
X521091Y513036D01*
X520997Y513007D01*
X520899Y512998D01*
D01*
X520899D01*
X516601D01*
X516513Y513006D01*
X516503Y513007D01*
X516409Y513036D01*
X516133Y513150D01*
X516046Y513196D01*
X515970Y513259D01*
X515759Y513470D01*
X515696Y513546D01*
X515650Y513633D01*
X515536Y513909D01*
X515507Y514003D01*
X515498Y514101D01*
Y514101D01*
D01*
Y514250D01*
X515498Y514250D01*
Y515000D01*
X515507Y515098D01*
X515536Y515192D01*
X515582Y515279D01*
X515645Y515355D01*
X515645Y515355D01*
X517145Y516855D01*
X517221Y516918D01*
X517308Y516964D01*
X517330Y516971D01*
X517402Y516993D01*
X517451Y516998D01*
X517500Y517002D01*
X517500Y517002D01*
X520750D01*
X520750Y517002D01*
X520899D01*
X520987Y516994D01*
D02*
G37*
D12*
X800000Y500000D02*
D03*
X776000Y490500D02*
D03*
Y509500D02*
D03*
X200000Y500000D02*
D03*
X224000Y509500D02*
D03*
X224000Y490500D02*
D03*
D13*
X415000Y950000D02*
D03*
X385000D02*
D03*
X885000Y50000D02*
D03*
X915000D02*
D03*
X785000D02*
D03*
X815000D02*
D03*
X515000Y950000D02*
D03*
X485000D02*
D03*
X615000D02*
D03*
X585000D02*
D03*
X715000D02*
D03*
X685000D02*
D03*
X815000D02*
D03*
X785000D02*
D03*
X915000D02*
D03*
X885000D02*
D03*
X315000D02*
D03*
X285000D02*
D03*
X115000D02*
D03*
X85000D02*
D03*
X215000D02*
D03*
X185000D02*
D03*
X685000Y50000D02*
D03*
X715000D02*
D03*
X585000D02*
D03*
X615000D02*
D03*
X485000D02*
D03*
X515000D02*
D03*
X385000D02*
D03*
X415000D02*
D03*
X285000D02*
D03*
X315000D02*
D03*
X185000D02*
D03*
X215000D02*
D03*
X85000D02*
D03*
X115000D02*
D03*
D14*
X950000Y885000D02*
D03*
Y915000D02*
D03*
X50000Y115000D02*
D03*
Y85000D02*
D03*
X950000Y715000D02*
D03*
Y685000D02*
D03*
Y815000D02*
D03*
Y785000D02*
D03*
X50000Y415000D02*
D03*
Y215000D02*
D03*
Y185000D02*
D03*
Y315000D02*
D03*
Y285000D02*
D03*
Y385000D02*
D03*
Y515000D02*
D03*
Y485000D02*
D03*
Y615000D02*
D03*
Y585000D02*
D03*
Y715000D02*
D03*
Y685000D02*
D03*
Y815000D02*
D03*
Y785000D02*
D03*
Y915000D02*
D03*
Y885000D02*
D03*
X950000Y585000D02*
D03*
Y615000D02*
D03*
Y485000D02*
D03*
Y515000D02*
D03*
Y385000D02*
D03*
Y415000D02*
D03*
Y285000D02*
D03*
Y315000D02*
D03*
Y185000D02*
D03*
Y215000D02*
D03*
Y85000D02*
D03*
Y115000D02*
D03*
D15*
X406500Y925000D02*
D03*
X393500D02*
D03*
X893500Y75000D02*
D03*
X906500D02*
D03*
X400000Y538500D02*
D03*
X413000D02*
D03*
Y590000D02*
D03*
X400000D02*
D03*
X506500Y925000D02*
D03*
X493500D02*
D03*
X606500D02*
D03*
X593500D02*
D03*
X706500D02*
D03*
X693500D02*
D03*
X806500D02*
D03*
X793500D02*
D03*
X906500D02*
D03*
X893500D02*
D03*
X306500D02*
D03*
X293500D02*
D03*
X106500D02*
D03*
X93500D02*
D03*
X206500D02*
D03*
X193500D02*
D03*
X273000Y525000D02*
D03*
X260000D02*
D03*
X273000Y475000D02*
D03*
X260000Y475000D02*
D03*
X693500Y75000D02*
D03*
X706500D02*
D03*
X593500D02*
D03*
X606500D02*
D03*
X493500D02*
D03*
X506500D02*
D03*
X393500D02*
D03*
X406500D02*
D03*
X293500D02*
D03*
X306500D02*
D03*
X193500D02*
D03*
X206500D02*
D03*
X93500D02*
D03*
X106500D02*
D03*
X793500D02*
D03*
X806500D02*
D03*
X727000Y475000D02*
D03*
X740000D02*
D03*
X727000Y525000D02*
D03*
X740000D02*
D03*
D16*
X925000Y893500D02*
D03*
Y906500D02*
D03*
X75000Y106500D02*
D03*
Y93500D02*
D03*
X925000Y706500D02*
D03*
Y693500D02*
D03*
Y806500D02*
D03*
Y793500D02*
D03*
Y406500D02*
D03*
Y393500D02*
D03*
Y306500D02*
D03*
Y293500D02*
D03*
X75000Y206500D02*
D03*
Y193500D02*
D03*
Y306500D02*
D03*
Y293500D02*
D03*
Y406500D02*
D03*
Y393500D02*
D03*
Y506500D02*
D03*
Y493500D02*
D03*
Y606500D02*
D03*
Y593500D02*
D03*
Y706500D02*
D03*
Y693500D02*
D03*
Y806500D02*
D03*
Y793500D02*
D03*
Y906500D02*
D03*
Y893500D02*
D03*
X525000Y727000D02*
D03*
Y740000D02*
D03*
X475000Y727000D02*
D03*
Y740000D02*
D03*
Y273000D02*
D03*
Y260000D02*
D03*
X525000Y273000D02*
D03*
Y260000D02*
D03*
X925000Y593500D02*
D03*
Y606500D02*
D03*
Y493500D02*
D03*
Y506500D02*
D03*
Y193500D02*
D03*
Y206500D02*
D03*
Y93500D02*
D03*
Y106500D02*
D03*
D17*
X507500Y397500D02*
D03*
X492500Y402500D02*
D03*
Y397500D02*
D03*
X507500Y402500D02*
D03*
D18*
X502500Y407500D02*
D03*
X497500D02*
D03*
X492500D02*
D03*
Y392500D02*
D03*
X497500D02*
D03*
X502500D02*
D03*
X507500D02*
D03*
Y407500D02*
D03*
D19*
X481250Y510000D02*
D03*
Y505000D02*
D03*
Y500000D02*
D03*
Y495000D02*
D03*
Y490000D02*
D03*
X518750D02*
D03*
Y495000D02*
D03*
Y500000D02*
D03*
Y505000D02*
D03*
Y510000D02*
D03*
D20*
X490000Y481250D02*
D03*
X495000D02*
D03*
X500000D02*
D03*
X505000D02*
D03*
X510000D02*
D03*
Y518750D02*
D03*
X505000D02*
D03*
X500000D02*
D03*
X495000D02*
D03*
X490000D02*
D03*
D21*
X550000Y338000D02*
D03*
Y325000D02*
D03*
X500000Y338000D02*
D03*
Y325000D02*
D03*
X450000Y338000D02*
D03*
Y325000D02*
D03*
D22*
X413000Y510000D02*
D03*
X400000D02*
D03*
X413000Y485000D02*
D03*
X400000D02*
D03*
X343500Y590000D02*
D03*
X356500D02*
D03*
X343500Y510000D02*
D03*
X356500D02*
D03*
X456500Y590000D02*
D03*
X469500D02*
D03*
D23*
X359250Y538500D02*
D03*
X340750D02*
D03*
Y561500D02*
D03*
X359250D02*
D03*
D24*
X500000Y800000D02*
D03*
X509500Y776000D02*
D03*
X490500D02*
D03*
X500000Y200000D02*
D03*
X490500Y224000D02*
D03*
X509500D02*
D03*
D25*
X610784Y609962D02*
D03*
Y622662D02*
D03*
X585384D02*
D03*
X598084D02*
D03*
X585384Y609962D02*
D03*
X598084D02*
D03*
D26*
X150000Y850000D02*
D03*
X850000D02*
D03*
Y150000D02*
D03*
X150000D02*
D03*
M02*
