G04*
G04 #@! TF.GenerationSoftware,Altium Limited,Altium Designer,24.1.2 (44)*
G04*
G04 Layer_Physical_Order=2*
G04 Layer_Color=16711680*
%FSLAX44Y44*%
%MOMM*%
G71*
G04*
G04 #@! TF.SameCoordinates,4F868512-D97F-4151-AA10-91EEB4B24D68*
G04*
G04*
G04 #@! TF.FilePolarity,Positive*
G04*
G01*
G75*
%ADD27C,0.2500*%
G04:AMPARAMS|DCode=40|XSize=0.9mm|YSize=0.8mm|CornerRadius=0.2mm|HoleSize=0mm|Usage=FLASHONLY|Rotation=180.000|XOffset=0mm|YOffset=0mm|HoleType=Round|Shape=RoundedRectangle|*
%AMROUNDEDRECTD40*
21,1,0.9000,0.4000,0,0,180.0*
21,1,0.5000,0.8000,0,0,180.0*
1,1,0.4000,-0.2500,0.2000*
1,1,0.4000,0.2500,0.2000*
1,1,0.4000,0.2500,-0.2000*
1,1,0.4000,-0.2500,-0.2000*
%
%ADD40ROUNDEDRECTD40*%
%ADD44C,1.0000*%
%ADD45C,3.0000*%
%ADD46C,0.7000*%
%ADD47R,1.2500X3.5200*%
%ADD48R,1.0500X2.2200*%
%ADD49R,1.6000X1.0000*%
G04:AMPARAMS|DCode=50|XSize=2.6mm|YSize=1mm|CornerRadius=0.25mm|HoleSize=0mm|Usage=FLASHONLY|Rotation=180.000|XOffset=0mm|YOffset=0mm|HoleType=Round|Shape=RoundedRectangle|*
%AMROUNDEDRECTD50*
21,1,2.6000,0.5000,0,0,180.0*
21,1,2.1000,1.0000,0,0,180.0*
1,1,0.5000,-1.0500,0.2500*
1,1,0.5000,1.0500,0.2500*
1,1,0.5000,1.0500,-0.2500*
1,1,0.5000,-1.0500,-0.2500*
%
%ADD50ROUNDEDRECTD50*%
G04:AMPARAMS|DCode=51|XSize=3.4mm|YSize=0.9mm|CornerRadius=0.225mm|HoleSize=0mm|Usage=FLASHONLY|Rotation=180.000|XOffset=0mm|YOffset=0mm|HoleType=Round|Shape=RoundedRectangle|*
%AMROUNDEDRECTD51*
21,1,3.4000,0.4500,0,0,180.0*
21,1,2.9500,0.9000,0,0,180.0*
1,1,0.4500,-1.4750,0.2250*
1,1,0.4500,1.4750,0.2250*
1,1,0.4500,1.4750,-0.2250*
1,1,0.4500,-1.4750,-0.2250*
%
%ADD51ROUNDEDRECTD51*%
G36*
X953110Y997451D02*
X959277Y996639D01*
X965285Y995029D01*
X971032Y992649D01*
X976419Y989539D01*
X981354Y985752D01*
X985752Y981354D01*
X989539Y976419D01*
X992649Y971032D01*
X995029Y965285D01*
X996639Y959277D01*
X997451Y953110D01*
X997451Y950000D01*
X997451Y50000D01*
X997451Y46890D01*
X996639Y40723D01*
X995029Y34715D01*
X992649Y28968D01*
X989539Y23581D01*
X985752Y18646D01*
X981354Y14248D01*
X976419Y10461D01*
X971032Y7351D01*
X965285Y4971D01*
X959277Y3361D01*
X953110Y2549D01*
X950000D01*
X50000Y2549D01*
X46890D01*
X40723Y3361D01*
X34715Y4971D01*
X28968Y7351D01*
X23581Y10461D01*
X18646Y14248D01*
X14248Y18646D01*
X10461Y23581D01*
X7351Y28968D01*
X4971Y34715D01*
X3361Y40723D01*
X2549Y46890D01*
X2549Y50000D01*
Y950000D01*
Y953110D01*
X3361Y959277D01*
X4971Y965285D01*
X7351Y971032D01*
X10461Y976419D01*
X14248Y981354D01*
X18646Y985752D01*
X23581Y989539D01*
X28968Y992649D01*
X34715Y995029D01*
X40723Y996639D01*
X46890Y997451D01*
X50000Y997451D01*
X950000Y997451D01*
X953110Y997451D01*
D02*
G37*
%LPC*%
G36*
X852361Y880000D02*
X847639D01*
X842975Y879261D01*
X838484Y877802D01*
X834277Y875658D01*
X830456Y872883D01*
X827117Y869544D01*
X824342Y865723D01*
X822198Y861516D01*
X820739Y857025D01*
X820000Y852361D01*
Y847639D01*
X820739Y842975D01*
X822198Y838484D01*
X824342Y834277D01*
X827117Y830456D01*
X830456Y827117D01*
X834277Y824342D01*
X838484Y822198D01*
X842975Y820739D01*
X847639Y820000D01*
X852361D01*
X857025Y820739D01*
X861516Y822198D01*
X865723Y824342D01*
X869544Y827117D01*
X872883Y830456D01*
X875658Y834277D01*
X877802Y838484D01*
X879261Y842975D01*
X880000Y847639D01*
Y852361D01*
X879261Y857025D01*
X877802Y861516D01*
X875658Y865723D01*
X872883Y869544D01*
X869544Y872883D01*
X865723Y875658D01*
X861516Y877802D01*
X857025Y879261D01*
X852361Y880000D01*
D02*
G37*
G36*
X152361D02*
X147639D01*
X142975Y879261D01*
X138484Y877802D01*
X134277Y875658D01*
X130456Y872883D01*
X127117Y869544D01*
X124342Y865723D01*
X122198Y861516D01*
X120739Y857025D01*
X120000Y852361D01*
Y847639D01*
X120739Y842975D01*
X122198Y838484D01*
X124342Y834277D01*
X127117Y830456D01*
X130456Y827117D01*
X134277Y824342D01*
X138484Y822198D01*
X142975Y820739D01*
X147639Y820000D01*
X152361D01*
X157025Y820739D01*
X161516Y822198D01*
X165723Y824342D01*
X169544Y827117D01*
X172883Y830456D01*
X175658Y834277D01*
X177802Y838484D01*
X179261Y842975D01*
X180000Y847639D01*
Y852361D01*
X179261Y857025D01*
X177802Y861516D01*
X175658Y865723D01*
X172883Y869544D01*
X169544Y872883D01*
X165723Y875658D01*
X161516Y877802D01*
X157025Y879261D01*
X152361Y880000D01*
D02*
G37*
G36*
X599005Y629662D02*
X597162D01*
X595382Y629185D01*
X593786Y628264D01*
X592482Y626960D01*
X592369Y626764D01*
X591099D01*
X590985Y626960D01*
X589682Y628264D01*
X588086Y629185D01*
X586305Y629662D01*
X584462D01*
X582682Y629185D01*
X581086Y628264D01*
X579782Y626960D01*
X578861Y625364D01*
X578384Y623584D01*
Y621741D01*
X578861Y619960D01*
X579782Y618364D01*
X581086Y617061D01*
X581283Y616947D01*
Y615677D01*
X581086Y615564D01*
X579782Y614260D01*
X578861Y612664D01*
X578384Y610884D01*
Y609041D01*
X578861Y607260D01*
X579782Y605664D01*
X581086Y604361D01*
X582682Y603439D01*
X584462Y602962D01*
X586305D01*
X588086Y603439D01*
X589682Y604361D01*
X590985Y605664D01*
X591099Y605861D01*
X592369D01*
X592482Y605664D01*
X593786Y604361D01*
X595382Y603439D01*
X597084Y602983D01*
Y609962D01*
X599084D01*
Y602983D01*
X600786Y603439D01*
X602382Y604361D01*
X603685Y605664D01*
X603799Y605861D01*
X605069D01*
X605182Y605664D01*
X605932Y604915D01*
X606040Y604763D01*
X606437Y604387D01*
X606746Y604059D01*
X607006Y603747D01*
X607218Y603452D01*
X607386Y603176D01*
X607513Y602922D01*
X607603Y602687D01*
X607663Y602470D01*
X607686Y602331D01*
Y600589D01*
X607679D01*
X607456Y599468D01*
X606823Y598520D01*
X606829Y598515D01*
X602491Y594177D01*
X602480Y594177D01*
X601476Y593532D01*
X600411Y593321D01*
Y593314D01*
X440037D01*
X440018Y593316D01*
X439865Y593345D01*
X439725Y593384D01*
X439592Y593433D01*
X439465Y593493D01*
X439340Y593564D01*
X439215Y593651D01*
X439087Y593755D01*
X438903Y593929D01*
X438756Y594022D01*
X438116Y594663D01*
X436094Y595500D01*
X433906D01*
X431884Y594663D01*
X430337Y593116D01*
X429500Y591094D01*
Y588906D01*
X430337Y586884D01*
X430978Y586244D01*
X431070Y586097D01*
X431245Y585913D01*
X431349Y585785D01*
X431436Y585659D01*
X431507Y585535D01*
X431567Y585408D01*
X431616Y585275D01*
X431655Y585135D01*
X431684Y584982D01*
X431686Y584963D01*
Y498852D01*
X431668Y497589D01*
X431668Y497589D01*
X431827Y496385D01*
X431995Y495109D01*
X432952Y492798D01*
X434468Y490822D01*
X434478Y490832D01*
X434482Y490831D01*
X439664Y485650D01*
X440548Y484745D01*
X440563Y484725D01*
X441508Y484000D01*
X442548Y483202D01*
X444859Y482245D01*
X445025Y482223D01*
X445035Y482215D01*
X445104Y482153D01*
X445321Y481924D01*
X445337Y481884D01*
X445621Y481601D01*
X445737Y481463D01*
X445845Y481376D01*
X446884Y480337D01*
X448906Y479500D01*
X451094D01*
X453116Y480337D01*
X454663Y481884D01*
X455500Y483906D01*
Y486094D01*
X454663Y488116D01*
X453116Y489663D01*
X451094Y490500D01*
X448906D01*
X446884Y489663D01*
X446483Y489261D01*
X446421Y489228D01*
X445263Y489435D01*
X445251Y489435D01*
X439171Y495515D01*
X439177Y495520D01*
X438544Y496468D01*
X438321Y497589D01*
X438314D01*
Y584963D01*
X438316Y584982D01*
X438345Y585135D01*
X438384Y585275D01*
X438433Y585407D01*
X438493Y585535D01*
X438564Y585660D01*
X438651Y585785D01*
X438755Y585913D01*
X438917Y586083D01*
X439087Y586245D01*
X439215Y586349D01*
X439340Y586436D01*
X439465Y586507D01*
X439592Y586567D01*
X439725Y586616D01*
X439865Y586655D01*
X440018Y586684D01*
X440037Y586686D01*
X600411D01*
Y586668D01*
X602891Y586995D01*
X605202Y587952D01*
X607178Y589468D01*
X607168Y589478D01*
X607169Y589482D01*
X611517Y593831D01*
X611522Y593832D01*
X611532Y593822D01*
X613048Y595798D01*
X614006Y598109D01*
X614332Y600589D01*
X614314D01*
Y602448D01*
X614336Y602590D01*
X614398Y602826D01*
X614491Y603088D01*
X614622Y603376D01*
X614793Y603689D01*
X614992Y604001D01*
X615590Y604779D01*
X615955Y605187D01*
X616023Y605302D01*
X616385Y605664D01*
X617307Y607260D01*
X617784Y609041D01*
Y610884D01*
X617307Y612664D01*
X616385Y614260D01*
X615082Y615564D01*
X614885Y615677D01*
Y616947D01*
X615082Y617061D01*
X616385Y618364D01*
X617307Y619960D01*
X617763Y621662D01*
X610784D01*
Y622662D01*
X609784D01*
Y629641D01*
X608082Y629185D01*
X606486Y628264D01*
X605182Y626960D01*
X605069Y626764D01*
X603799D01*
X603685Y626960D01*
X602382Y628264D01*
X600786Y629185D01*
X599005Y629662D01*
D02*
G37*
G36*
X611784Y629641D02*
Y623662D01*
X617763D01*
X617307Y625364D01*
X616385Y626960D01*
X615082Y628264D01*
X613486Y629185D01*
X611784Y629641D01*
D02*
G37*
G36*
X496094Y468000D02*
X493906D01*
X491884Y467163D01*
X490337Y465616D01*
X489500Y463594D01*
Y461406D01*
X490337Y459384D01*
X490978Y458744D01*
X491070Y458597D01*
X491245Y458413D01*
X491349Y458285D01*
X491436Y458159D01*
X491507Y458035D01*
X491567Y457908D01*
X491616Y457775D01*
X491655Y457635D01*
X491684Y457482D01*
X491686Y457463D01*
Y453852D01*
X491668Y452589D01*
X491668Y452589D01*
X491827Y451385D01*
X491995Y450109D01*
X492952Y447798D01*
X493737Y446774D01*
X494474Y445813D01*
X494483Y445807D01*
X495389Y444925D01*
X518640Y421673D01*
X518278Y420240D01*
X516884Y419663D01*
X516244Y419022D01*
X516097Y418930D01*
X515913Y418755D01*
X515785Y418651D01*
X515659Y418564D01*
X515535Y418493D01*
X515408Y418433D01*
X515275Y418384D01*
X515135Y418345D01*
X514982Y418316D01*
X514963Y418314D01*
X500089D01*
Y418321D01*
X498968Y418544D01*
X498021Y419177D01*
X498015Y419171D01*
X474171Y443015D01*
X474177Y443020D01*
X473544Y443968D01*
X473321Y445089D01*
X473314D01*
Y457463D01*
X473316Y457482D01*
X473345Y457635D01*
X473384Y457775D01*
X473433Y457907D01*
X473493Y458035D01*
X473564Y458160D01*
X473651Y458285D01*
X473755Y458413D01*
X473930Y458597D01*
X474022Y458744D01*
X474663Y459384D01*
X475500Y461406D01*
Y463594D01*
X474663Y465616D01*
X473116Y467163D01*
X471094Y468000D01*
X468906D01*
X466884Y467163D01*
X465337Y465616D01*
X464500Y463594D01*
Y461406D01*
X465337Y459384D01*
X465978Y458744D01*
X466070Y458597D01*
X466245Y458413D01*
X466349Y458285D01*
X466436Y458159D01*
X466507Y458035D01*
X466567Y457908D01*
X466616Y457775D01*
X466655Y457635D01*
X466684Y457482D01*
X466686Y457463D01*
Y446352D01*
X466668Y445089D01*
X466668Y445089D01*
X466827Y443885D01*
X466995Y442609D01*
X467952Y440298D01*
X469468Y438322D01*
X469478Y438332D01*
X469482Y438331D01*
X492437Y415377D01*
X493323Y414467D01*
X493323Y414467D01*
X495298Y412952D01*
X497609Y411995D01*
X500089Y411668D01*
Y411686D01*
X514963D01*
X514982Y411684D01*
X515135Y411655D01*
X515275Y411616D01*
X515408Y411567D01*
X515535Y411507D01*
X515660Y411436D01*
X515785Y411349D01*
X515913Y411245D01*
X516097Y411071D01*
X516244Y410978D01*
X516884Y410337D01*
X518906Y409500D01*
X521094D01*
X523116Y410337D01*
X524170Y411392D01*
X525000Y411742D01*
X525830Y411392D01*
X526884Y410337D01*
X528906Y409500D01*
X531094D01*
X533116Y410337D01*
X534663Y411884D01*
X535500Y413906D01*
Y416094D01*
X534663Y418116D01*
X533116Y419663D01*
X531094Y420500D01*
X530188D01*
X530019Y420538D01*
X529765Y420545D01*
X529601Y420562D01*
X529451Y420589D01*
X529312Y420627D01*
X529180Y420675D01*
X529052Y420734D01*
X528925Y420806D01*
X528796Y420893D01*
X528782Y420905D01*
X500074Y449612D01*
X499182Y450516D01*
Y450516D01*
X498534Y451517D01*
X498321Y452589D01*
X498314D01*
Y457463D01*
X498316Y457482D01*
X498345Y457635D01*
X498384Y457775D01*
X498433Y457907D01*
X498493Y458035D01*
X498564Y458160D01*
X498651Y458285D01*
X498755Y458413D01*
X498930Y458597D01*
X499022Y458744D01*
X499663Y459384D01*
X500500Y461406D01*
Y463594D01*
X499663Y465616D01*
X498116Y467163D01*
X496094Y468000D01*
D02*
G37*
G36*
X154750Y376583D02*
X125250D01*
X123592Y376253D01*
X122186Y375314D01*
X121247Y373908D01*
X120917Y372250D01*
Y367750D01*
X121247Y366092D01*
X122186Y364686D01*
X123592Y363747D01*
X125250Y363417D01*
X154750D01*
X156408Y363747D01*
X157814Y364686D01*
X158753Y366092D01*
X159083Y367750D01*
Y372250D01*
X158753Y373908D01*
X157814Y375314D01*
X156408Y376253D01*
X154750Y376583D01*
D02*
G37*
G36*
X210500Y352088D02*
X201000D01*
Y346000D01*
X215088D01*
Y347500D01*
X214739Y349256D01*
X213744Y350744D01*
X212256Y351739D01*
X210500Y352088D01*
D02*
G37*
G36*
X199000D02*
X189500D01*
X187744Y351739D01*
X186256Y350744D01*
X185261Y349256D01*
X184912Y347500D01*
Y346000D01*
X199000D01*
Y352088D01*
D02*
G37*
G36*
X154750Y306583D02*
X125250D01*
X123592Y306253D01*
X122186Y305314D01*
X121247Y303908D01*
X120917Y302250D01*
Y297750D01*
X121247Y296092D01*
X122186Y294686D01*
X123592Y293747D01*
X125250Y293417D01*
X154750D01*
X156408Y293747D01*
X157814Y294686D01*
X158753Y296092D01*
X159083Y297750D01*
Y302250D01*
X158753Y303908D01*
X157814Y305314D01*
X156408Y306253D01*
X154750Y306583D01*
D02*
G37*
G36*
X293250Y263000D02*
X286000D01*
Y244400D01*
X293250D01*
Y263000D01*
D02*
G37*
G36*
X284000D02*
X276750D01*
Y244400D01*
X284000D01*
Y263000D01*
D02*
G37*
G36*
X293250Y242400D02*
X286000D01*
Y223800D01*
X293250D01*
Y242400D01*
D02*
G37*
G36*
X284000D02*
X276750D01*
Y223800D01*
X284000D01*
Y242400D01*
D02*
G37*
G36*
X215088Y344000D02*
X200000D01*
X184912D01*
Y342500D01*
X185261Y340744D01*
X186256Y339256D01*
X187672Y338309D01*
X187687Y338216D01*
X187083Y337039D01*
X175000D01*
X174220Y336884D01*
X173558Y336442D01*
X173116Y335780D01*
X172961Y335000D01*
Y215000D01*
X173116Y214220D01*
X173558Y213558D01*
X174220Y213116D01*
X175000Y212961D01*
X270000D01*
X270780Y213116D01*
X271442Y213558D01*
X271884Y214220D01*
X272039Y215000D01*
Y335000D01*
X271884Y335780D01*
X271442Y336442D01*
X270780Y336884D01*
X270000Y337039D01*
X212917D01*
X212313Y338216D01*
X212328Y338309D01*
X213744Y339256D01*
X214739Y340744D01*
X215088Y342500D01*
Y344000D01*
D02*
G37*
G36*
X370000Y337039D02*
X300000D01*
X299220Y336884D01*
X298558Y336442D01*
X298116Y335780D01*
X297961Y335000D01*
Y215000D01*
X298116Y214220D01*
X298558Y213558D01*
X299220Y213116D01*
X300000Y212961D01*
X352922D01*
X353658Y211691D01*
X353422Y210500D01*
Y209500D01*
X366578D01*
Y210500D01*
X366342Y211691D01*
X367078Y212961D01*
X370000D01*
X370780Y213116D01*
X371442Y213558D01*
X371884Y214220D01*
X372039Y215000D01*
Y335000D01*
X371884Y335780D01*
X371442Y336442D01*
X370780Y336884D01*
X370000Y337039D01*
D02*
G37*
G36*
X366578Y207500D02*
X361000D01*
Y202422D01*
X362500D01*
X364061Y202732D01*
X365384Y203616D01*
X366268Y204939D01*
X366578Y206500D01*
Y207500D01*
D02*
G37*
G36*
X359000D02*
X353422D01*
Y206500D01*
X353732Y204939D01*
X354616Y203616D01*
X355939Y202732D01*
X357500Y202422D01*
X359000D01*
Y207500D01*
D02*
G37*
G36*
X215000Y207000D02*
X206000D01*
Y201000D01*
X215000D01*
Y207000D01*
D02*
G37*
G36*
X204000D02*
X195000D01*
Y201000D01*
X204000D01*
Y207000D01*
D02*
G37*
G36*
X293250Y212200D02*
X286000D01*
Y193600D01*
X293250D01*
Y212200D01*
D02*
G37*
G36*
X284000D02*
X276750D01*
Y193600D01*
X284000D01*
Y212200D01*
D02*
G37*
G36*
X215000Y199000D02*
X206000D01*
Y193000D01*
X215000D01*
Y199000D01*
D02*
G37*
G36*
X204000D02*
X195000D01*
Y193000D01*
X204000D01*
Y199000D01*
D02*
G37*
G36*
X293250Y191600D02*
X286000D01*
Y173000D01*
X293250D01*
Y191600D01*
D02*
G37*
G36*
X284000D02*
X276750D01*
Y173000D01*
X284000D01*
Y191600D01*
D02*
G37*
G36*
X317650Y199200D02*
X303150D01*
Y173000D01*
X317650D01*
Y199200D01*
D02*
G37*
G36*
X266850D02*
X252350D01*
Y173000D01*
X266850D01*
Y199200D01*
D02*
G37*
G36*
X852361Y180000D02*
X847639D01*
X842975Y179261D01*
X838484Y177802D01*
X834277Y175658D01*
X830456Y172883D01*
X827117Y169544D01*
X824342Y165723D01*
X822198Y161516D01*
X820739Y157025D01*
X820000Y152361D01*
Y147639D01*
X820739Y142975D01*
X822198Y138484D01*
X824342Y134277D01*
X827117Y130456D01*
X830456Y127117D01*
X834277Y124342D01*
X838484Y122198D01*
X842975Y120739D01*
X847639Y120000D01*
X852361D01*
X857025Y120739D01*
X861516Y122198D01*
X865723Y124342D01*
X869544Y127117D01*
X872883Y130456D01*
X875658Y134277D01*
X877802Y138484D01*
X879261Y142975D01*
X880000Y147639D01*
Y152361D01*
X879261Y157025D01*
X877802Y161516D01*
X875658Y165723D01*
X872883Y169544D01*
X869544Y172883D01*
X865723Y175658D01*
X861516Y177802D01*
X857025Y179261D01*
X852361Y180000D01*
D02*
G37*
G36*
X152361D02*
X147639D01*
X142975Y179261D01*
X138484Y177802D01*
X134277Y175658D01*
X130456Y172883D01*
X127117Y169544D01*
X124342Y165723D01*
X122198Y161516D01*
X120739Y157025D01*
X120000Y152361D01*
Y147639D01*
X120739Y142975D01*
X122198Y138484D01*
X124342Y134277D01*
X127117Y130456D01*
X130456Y127117D01*
X134277Y124342D01*
X138484Y122198D01*
X142975Y120739D01*
X147639Y120000D01*
X152361D01*
X157025Y120739D01*
X161516Y122198D01*
X165723Y124342D01*
X169544Y127117D01*
X172883Y130456D01*
X175658Y134277D01*
X177802Y138484D01*
X179261Y142975D01*
X180000Y147639D01*
Y152361D01*
X179261Y157025D01*
X177802Y161516D01*
X175658Y165723D01*
X172883Y169544D01*
X169544Y172883D01*
X165723Y175658D01*
X161516Y177802D01*
X157025Y179261D01*
X152361Y180000D01*
D02*
G37*
%LPD*%
G36*
X614020Y606082D02*
X613321Y605173D01*
X613037Y604727D01*
X612796Y604287D01*
X612600Y603854D01*
X612447Y603427D01*
X612337Y603006D01*
X612272Y602591D01*
X612250Y602182D01*
X609750Y602070D01*
X609727Y602490D01*
X609658Y602909D01*
X609542Y603327D01*
X609381Y603745D01*
X609173Y604163D01*
X608919Y604580D01*
X608619Y604996D01*
X608273Y605413D01*
X607880Y605828D01*
X607441Y606244D01*
X614435Y606546D01*
X614020Y606082D01*
D02*
G37*
G36*
X437740Y592222D02*
X437991Y592018D01*
X438252Y591838D01*
X438523Y591682D01*
X438805Y591550D01*
X439097Y591442D01*
X439400Y591358D01*
X439712Y591298D01*
X440036Y591262D01*
X440369Y591250D01*
Y588750D01*
X440036Y588738D01*
X439712Y588702D01*
X439400Y588642D01*
X439097Y588558D01*
X438805Y588450D01*
X438523Y588318D01*
X438252Y588162D01*
X437991Y587982D01*
X437740Y587778D01*
X437500Y587550D01*
Y592450D01*
X437740Y592222D01*
D02*
G37*
G36*
X437222Y587260D02*
X437018Y587009D01*
X436838Y586748D01*
X436682Y586477D01*
X436550Y586195D01*
X436442Y585903D01*
X436358Y585600D01*
X436298Y585288D01*
X436262Y584964D01*
X436250Y584631D01*
X433750D01*
X433738Y584964D01*
X433702Y585288D01*
X433642Y585600D01*
X433558Y585903D01*
X433450Y586195D01*
X433318Y586477D01*
X433162Y586748D01*
X432982Y587009D01*
X432778Y587260D01*
X432550Y587500D01*
X437450D01*
X437222Y587260D01*
D02*
G37*
G36*
X447297Y482777D02*
X447091Y483021D01*
X446526Y483616D01*
X446355Y483770D01*
X446192Y483901D01*
X446038Y484009D01*
X445892Y484095D01*
X445755Y484158D01*
X445627Y484198D01*
X445848Y486727D01*
X445970Y486704D01*
X446108Y486707D01*
X446259Y486735D01*
X446425Y486790D01*
X446606Y486870D01*
X446800Y486976D01*
X447010Y487108D01*
X447471Y487449D01*
X447723Y487658D01*
X447297Y482777D01*
D02*
G37*
G36*
X497222Y459760D02*
X497018Y459509D01*
X496838Y459248D01*
X496682Y458977D01*
X496550Y458695D01*
X496442Y458403D01*
X496358Y458100D01*
X496298Y457788D01*
X496262Y457464D01*
X496250Y457131D01*
X493750D01*
X493738Y457464D01*
X493702Y457788D01*
X493642Y458100D01*
X493558Y458403D01*
X493450Y458695D01*
X493318Y458977D01*
X493162Y459248D01*
X492982Y459509D01*
X492778Y459760D01*
X492550Y460000D01*
X497450D01*
X497222Y459760D01*
D02*
G37*
G36*
X472222D02*
X472018Y459509D01*
X471838Y459248D01*
X471682Y458977D01*
X471550Y458695D01*
X471442Y458403D01*
X471358Y458100D01*
X471298Y457788D01*
X471262Y457464D01*
X471250Y457131D01*
X468750D01*
X468738Y457464D01*
X468702Y457788D01*
X468642Y458100D01*
X468558Y458403D01*
X468450Y458695D01*
X468318Y458977D01*
X468162Y459248D01*
X467982Y459509D01*
X467778Y459760D01*
X467550Y460000D01*
X472450D01*
X472222Y459760D01*
D02*
G37*
G36*
X527332Y419453D02*
X527586Y419250D01*
X527849Y419071D01*
X528122Y418917D01*
X528405Y418787D01*
X528698Y418681D01*
X529000Y418599D01*
X529312Y418542D01*
X529634Y418509D01*
X529965Y418500D01*
X526500Y415035D01*
X526491Y415366D01*
X526458Y415688D01*
X526401Y416000D01*
X526319Y416302D01*
X526213Y416595D01*
X526083Y416878D01*
X525929Y417151D01*
X525750Y417414D01*
X525547Y417668D01*
X525320Y417913D01*
X527087Y419680D01*
X527332Y419453D01*
D02*
G37*
G36*
X517500Y412550D02*
X517260Y412778D01*
X517009Y412982D01*
X516748Y413162D01*
X516477Y413318D01*
X516195Y413450D01*
X515903Y413558D01*
X515600Y413642D01*
X515288Y413702D01*
X514964Y413738D01*
X514631Y413750D01*
Y416250D01*
X514964Y416262D01*
X515288Y416298D01*
X515600Y416358D01*
X515903Y416442D01*
X516195Y416550D01*
X516477Y416682D01*
X516748Y416838D01*
X517009Y417018D01*
X517260Y417222D01*
X517500Y417450D01*
Y412550D01*
D02*
G37*
G36*
X270000Y215000D02*
X175000D01*
Y335000D01*
X270000D01*
Y215000D01*
D02*
G37*
%LPC*%
G36*
X210500Y332088D02*
X201000D01*
Y326000D01*
X215088D01*
Y327500D01*
X214739Y329256D01*
X213744Y330744D01*
X212256Y331739D01*
X210500Y332088D01*
D02*
G37*
G36*
X199000D02*
X189500D01*
X187744Y331739D01*
X186256Y330744D01*
X185261Y329256D01*
X184912Y327500D01*
Y326000D01*
X199000D01*
Y332088D01*
D02*
G37*
G36*
X215088Y324000D02*
X201000D01*
Y317912D01*
X210500D01*
X212256Y318261D01*
X213744Y319256D01*
X214739Y320744D01*
X215088Y322500D01*
Y324000D01*
D02*
G37*
G36*
X199000D02*
X184912D01*
Y322500D01*
X185261Y320744D01*
X186256Y319256D01*
X187744Y318261D01*
X189500Y317912D01*
X199000D01*
Y324000D01*
D02*
G37*
G36*
X267850Y263000D02*
X260600D01*
Y244400D01*
X267850D01*
Y263000D01*
D02*
G37*
G36*
X258600D02*
X251350D01*
Y244400D01*
X258600D01*
Y263000D01*
D02*
G37*
G36*
X215000Y237000D02*
X206000D01*
Y231000D01*
X215000D01*
Y237000D01*
D02*
G37*
G36*
X204000D02*
X195000D01*
Y231000D01*
X204000D01*
Y237000D01*
D02*
G37*
G36*
X267850Y242400D02*
X260600D01*
Y223800D01*
X267850D01*
Y242400D01*
D02*
G37*
G36*
X258600D02*
X251350D01*
Y223800D01*
X258600D01*
Y242400D01*
D02*
G37*
G36*
X215000Y229000D02*
X206000D01*
Y223000D01*
X215000D01*
Y229000D01*
D02*
G37*
G36*
X204000D02*
X195000D01*
Y223000D01*
X204000D01*
Y229000D01*
D02*
G37*
%LPD*%
G36*
X370000Y215000D02*
X300000D01*
Y335000D01*
X370000D01*
Y215000D01*
D02*
G37*
%LPC*%
G36*
X318650Y263000D02*
X311400D01*
Y244400D01*
X318650D01*
Y263000D01*
D02*
G37*
G36*
X309400D02*
X302150D01*
Y244400D01*
X309400D01*
Y263000D01*
D02*
G37*
G36*
X318650Y242400D02*
X311400D01*
Y223800D01*
X318650D01*
Y242400D01*
D02*
G37*
G36*
X309400D02*
X302150D01*
Y223800D01*
X309400D01*
Y242400D01*
D02*
G37*
G36*
X362500Y227578D02*
X361000D01*
Y222500D01*
X366578D01*
Y223500D01*
X366268Y225061D01*
X365384Y226384D01*
X364061Y227268D01*
X362500Y227578D01*
D02*
G37*
G36*
X359000D02*
X357500D01*
X355939Y227268D01*
X354616Y226384D01*
X353732Y225061D01*
X353422Y223500D01*
Y222500D01*
X359000D01*
Y227578D01*
D02*
G37*
G36*
X366578Y220500D02*
X361000D01*
Y215422D01*
X362500D01*
X364061Y215732D01*
X365384Y216616D01*
X366268Y217939D01*
X366578Y219500D01*
Y220500D01*
D02*
G37*
G36*
X359000D02*
X353422D01*
Y219500D01*
X353732Y217939D01*
X354616Y216616D01*
X355939Y215732D01*
X357500Y215422D01*
X359000D01*
Y220500D01*
D02*
G37*
%LPD*%
D27*
X470000Y445089D02*
G03*
X471826Y440674I6250J-0D01*
G01*
X442908Y487092D02*
G03*
X446820Y485272I4431J4408D01*
G01*
X611000Y608350D02*
G03*
X610784Y609962I-6250J-18D01*
G01*
X495000Y452589D02*
G03*
X496836Y448164I6250J-0D01*
G01*
X609174Y596174D02*
G03*
X611000Y600589I-4424J4414D01*
G01*
X435000Y497589D02*
G03*
X436826Y493174I6250J-0D01*
G01*
X495675Y416825D02*
G03*
X500089Y415000I4414J4425D01*
G01*
X600411Y590000D02*
G03*
X604826Y591826I0J6250D01*
G01*
X611000Y600589D02*
Y608350D01*
X496836Y448164D02*
X530000Y415000D01*
X446820Y485271D02*
X450000Y485000D01*
X470000Y445089D02*
Y462500D01*
X435000Y497589D02*
Y590000D01*
X600411D01*
X604826Y591826D02*
X609174Y596174D01*
X436826Y493174D02*
X442908Y487092D01*
X471826Y440674D02*
X495675Y416825D01*
X500089Y415000D02*
X520000D01*
X495000Y452589D02*
Y462500D01*
D40*
X360000Y221500D02*
D03*
Y208500D02*
D03*
D44*
X610784Y609962D02*
D03*
Y622662D02*
D03*
X585384D02*
D03*
X598084D02*
D03*
X585384Y609962D02*
D03*
X598084D02*
D03*
D45*
X150000Y850000D02*
D03*
X850000D02*
D03*
Y150000D02*
D03*
X150000D02*
D03*
D46*
X469500Y575000D02*
D03*
X385000Y510000D02*
D03*
Y485000D02*
D03*
X328500Y510000D02*
D03*
Y590000D02*
D03*
X510000Y273000D02*
D03*
X475500Y224000D02*
D03*
X273000Y490000D02*
D03*
X224000Y524500D02*
D03*
X524500Y776000D02*
D03*
X727000Y510000D02*
D03*
X490000Y727000D02*
D03*
X776000Y475500D02*
D03*
X550000Y310000D02*
D03*
X500000D02*
D03*
X450000D02*
D03*
X472000Y382000D02*
D03*
X490000D02*
D03*
X472000Y400000D02*
D03*
X450000Y485000D02*
D03*
Y500000D02*
D03*
X435000Y590000D02*
D03*
X350000Y240000D02*
D03*
Y260000D02*
D03*
Y280000D02*
D03*
X320000D02*
D03*
Y300000D02*
D03*
X350000D02*
D03*
Y320000D02*
D03*
X320000D02*
D03*
X530000Y415000D02*
D03*
X520000D02*
D03*
X470000Y462500D02*
D03*
X495000D02*
D03*
D47*
X259600Y243400D02*
D03*
X310400D02*
D03*
X285000Y192600D02*
D03*
Y243400D02*
D03*
D48*
X259600Y186100D02*
D03*
X310400D02*
D03*
D49*
X205000Y230000D02*
D03*
Y200000D02*
D03*
D50*
X200000Y345000D02*
D03*
Y325000D02*
D03*
D51*
X140000Y370000D02*
D03*
Y300000D02*
D03*
M02*
