M48
;Layer_Color=9474304
;FILE_FORMAT=4:3
METRIC,TZ
;TYPE=PLATED
T01F00S00C0.300
T02F00S00C0.650
;TYPE=NON_PLATED
T03F00S00C3.000
%
T01
X51000Y27300
X50000Y31000
X55000
X53000Y41500
X52000
X49000Y38200
X49500Y46250
X72700Y51000
X77600Y47550
X47000Y46250
X45000Y48500
Y50000
X38500Y51000
Y48500
X32850Y51000
X27300Y49000
X22400Y52450
X32000Y32000
Y30000
Y28000
X35000
Y26000
Y24000
Y30000
Y32000
X45000Y31000
X47200Y38200
Y40000
X47550Y22400
X46950Y57500
X43500Y59000
X32850
X49000Y72700
X52450Y77600
T02
X58538Y60996
Y62266
X59808
X61078
Y60996
X59808
T03
X85000Y15000
X15000
Y85000
X85000
M30
