G04*
G04 #@! TF.GenerationSoftware,Altium Limited,Altium Designer,22.6.1 (34)*
G04*
G04 Layer_Physical_Order=2*
G04 Layer_Color=16711680*
%FSTAX43Y43*%
%MOMM*%
G71*
G04*
G04 #@! TF.SameCoordinates,8B89C629-5D68-4BDA-90FB-FB159E748453*
G04*
G04*
G04 #@! TF.FilePolarity,Positive*
G04*
G01*
G75*
%ADD14C,0.400*%
%ADD15C,1.500*%
%ADD16C,0.700*%
%ADD17R,0.900X0.800*%
%ADD18C,0.700*%
G36*
X011776Y0041236D02*
X0117774Y0041229D01*
X0117791Y0041222D01*
X0117811Y0041216D01*
X0117834Y0041211D01*
X011786Y0041207D01*
X0117922Y0041202D01*
X0117997Y00412D01*
Y00408D01*
X0117958Y00408D01*
X011786Y0040793D01*
X0117834Y0040789D01*
X0117811Y0040784D01*
X0117791Y0040778D01*
X0117774Y0040771D01*
X011776Y0040764D01*
X011775Y0040755D01*
Y0041245D01*
X011776Y0041236D01*
D02*
G37*
G36*
X0112818Y0039466D02*
X0112892Y0039401D01*
X0112913Y0039385D01*
X0112933Y0039373D01*
X0112951Y0039363D01*
X0112968Y0039355D01*
X0112983Y0039351D01*
X0112996Y003935D01*
X011265Y0039004D01*
X0112649Y0039017D01*
X0112645Y0039032D01*
X0112637Y0039049D01*
X0112627Y0039067D01*
X0112615Y0039087D01*
X0112599Y0039108D01*
X0112559Y0039156D01*
X0112507Y003921D01*
X011279Y0039493D01*
X0112818Y0039466D01*
D02*
G37*
G36*
X012275Y0038755D02*
X012274Y0038764D01*
X0122726Y0038771D01*
X0122709Y0038778D01*
X0122689Y0038784D01*
X0122666Y0038789D01*
X012264Y0038793D01*
X0122578Y0038798D01*
X0122503Y00388D01*
Y00392D01*
X0122542Y00392D01*
X012264Y0039207D01*
X0122666Y0039211D01*
X0122689Y0039216D01*
X0122709Y0039222D01*
X0122726Y0039229D01*
X012274Y0039236D01*
X012275Y0039245D01*
Y0038755D01*
D02*
G37*
G36*
X0044993Y003721D02*
X0044966Y0037182D01*
X0044901Y0037108D01*
X0044885Y0037087D01*
X0044873Y0037067D01*
X0044863Y0037049D01*
X0044856Y0037032D01*
X0044851Y0037017D01*
X004485Y0037004D01*
X0044504Y003735D01*
X0044517Y0037351D01*
X0044532Y0037356D01*
X0044549Y0037363D01*
X0044567Y0037373D01*
X0044587Y0037385D01*
X0044608Y0037401D01*
X0044656Y0037441D01*
X004471Y0037493D01*
X0044993Y003721D01*
D02*
G37*
G36*
X0034993D02*
X0034966Y0037182D01*
X0034901Y0037108D01*
X0034885Y0037087D01*
X0034873Y0037067D01*
X0034863Y0037049D01*
X0034856Y0037032D01*
X0034851Y0037017D01*
X003485Y0037004D01*
X0034504Y003735D01*
X0034517Y0037351D01*
X0034532Y0037356D01*
X0034549Y0037363D01*
X0034567Y0037373D01*
X0034587Y0037385D01*
X0034608Y0037401D01*
X0034656Y0037441D01*
X003471Y0037493D01*
X0034993Y003721D01*
D02*
G37*
G36*
X0127318Y0037466D02*
X0127392Y0037401D01*
X0127413Y0037385D01*
X0127433Y0037373D01*
X0127451Y0037363D01*
X0127468Y0037356D01*
X0127483Y0037351D01*
X0127496Y003735D01*
X012715Y0037004D01*
X0127149Y0037017D01*
X0127145Y0037032D01*
X0127137Y0037049D01*
X0127127Y0037067D01*
X0127115Y0037087D01*
X0127099Y0037108D01*
X0127059Y0037156D01*
X0127007Y003721D01*
X012729Y0037493D01*
X0127318Y0037466D01*
D02*
G37*
G36*
X007476Y0037236D02*
X0074774Y0037229D01*
X0074791Y0037222D01*
X0074811Y0037216D01*
X0074834Y0037211D01*
X007486Y0037207D01*
X0074922Y0037202D01*
X0074997Y00372D01*
Y00368D01*
X0074958Y00368D01*
X007486Y0036793D01*
X0074834Y0036789D01*
X0074811Y0036784D01*
X0074791Y0036778D01*
X0074774Y0036771D01*
X007476Y0036764D01*
X007475Y0036755D01*
Y0037245D01*
X007476Y0037236D01*
D02*
G37*
G36*
X0094496Y003665D02*
X0094483Y0036649D01*
X0094468Y0036645D01*
X0094451Y0036637D01*
X0094433Y0036627D01*
X0094413Y0036615D01*
X0094392Y0036599D01*
X0094344Y0036559D01*
X009429Y0036507D01*
X0094007Y003679D01*
X0094034Y0036818D01*
X0094099Y0036892D01*
X0094115Y0036913D01*
X0094127Y0036933D01*
X0094137Y0036951D01*
X0094145Y0036968D01*
X0094149Y0036983D01*
X009415Y0036996D01*
X0094496Y003665D01*
D02*
G37*
G36*
X0064851Y0036983D02*
X0064855Y0036968D01*
X0064863Y0036951D01*
X0064873Y0036933D01*
X0064885Y0036913D01*
X0064901Y0036892D01*
X0064941Y0036844D01*
X0064993Y003679D01*
X006471Y0036507D01*
X0064682Y0036534D01*
X0064608Y0036599D01*
X0064587Y0036615D01*
X0064567Y0036627D01*
X0064549Y0036637D01*
X0064532Y0036645D01*
X0064517Y0036649D01*
X0064504Y003665D01*
X006485Y0036996D01*
X0064851Y0036983D01*
D02*
G37*
G36*
X0054851D02*
X0054856Y0036968D01*
X0054863Y0036951D01*
X0054873Y0036933D01*
X0054885Y0036913D01*
X0054901Y0036892D01*
X0054941Y0036844D01*
X0054993Y003679D01*
X005471Y0036507D01*
X0054682Y0036534D01*
X0054608Y0036599D01*
X0054587Y0036615D01*
X0054567Y0036627D01*
X0054549Y0036637D01*
X0054532Y0036645D01*
X0054517Y0036649D01*
X0054504Y003665D01*
X005485Y0036996D01*
X0054851Y0036983D01*
D02*
G37*
G36*
X0044851D02*
X0044856Y0036968D01*
X0044863Y0036951D01*
X0044873Y0036933D01*
X0044885Y0036913D01*
X0044901Y0036892D01*
X0044941Y0036844D01*
X0044993Y003679D01*
X004471Y0036507D01*
X0044682Y0036534D01*
X0044608Y0036599D01*
X0044587Y0036615D01*
X0044567Y0036627D01*
X0044549Y0036637D01*
X0044532Y0036645D01*
X0044517Y0036649D01*
X0044504Y003665D01*
X004485Y0036996D01*
X0044851Y0036983D01*
D02*
G37*
G36*
X0127743Y0036748D02*
X0127737Y003674D01*
X0127731Y0036729D01*
X0127725Y0036713D01*
X0127719Y0036694D01*
X0127707Y0036645D01*
X0127696Y0036582D01*
X0127685Y0036503D01*
X0127282Y0036504D01*
X0127287Y0036541D01*
X0127291Y0036606D01*
X0127291Y0036635D01*
X0127289Y0036661D01*
X0127285Y0036685D01*
X012728Y0036705D01*
X0127273Y0036724D01*
X0127264Y0036739D01*
X0127253Y0036752D01*
X0127743Y0036748D01*
D02*
G37*
G36*
X0034736Y0036739D02*
X0034727Y0036724D01*
X003472Y0036705D01*
X0034715Y0036685D01*
X0034711Y0036661D01*
X0034709Y0036635D01*
X0034709Y0036606D01*
X003471Y0036575D01*
X0034718Y0036504D01*
X0034315Y0036503D01*
X0034309Y0036544D01*
X0034281Y0036694D01*
X0034275Y0036713D01*
X0034269Y0036729D01*
X0034263Y003674D01*
X0034257Y0036748D01*
X0034747Y0036752D01*
X0034736Y0036739D01*
D02*
G37*
G36*
X0104736Y003674D02*
X0104729Y0036726D01*
X0104722Y0036709D01*
X0104716Y0036689D01*
X0104711Y0036666D01*
X0104707Y003664D01*
X0104702Y0036578D01*
X01047Y0036503D01*
X01043D01*
X01043Y0036542D01*
X0104293Y003664D01*
X0104289Y0036666D01*
X0104284Y0036689D01*
X0104278Y0036709D01*
X0104271Y0036726D01*
X0104264Y003674D01*
X0104255Y003675D01*
X0104745D01*
X0104736Y003674D01*
D02*
G37*
G36*
X0084736D02*
X0084729Y0036726D01*
X0084722Y0036709D01*
X0084716Y0036689D01*
X0084711Y0036666D01*
X0084707Y003664D01*
X0084702Y0036578D01*
X00847Y0036503D01*
X00843D01*
X00843Y0036542D01*
X0084293Y003664D01*
X0084289Y0036666D01*
X0084284Y0036689D01*
X0084278Y0036709D01*
X0084271Y0036726D01*
X0084264Y003674D01*
X0084255Y003675D01*
X0084745D01*
X0084736Y003674D01*
D02*
G37*
G36*
X0107736Y003524D02*
X0107729Y0035226D01*
X0107722Y0035209D01*
X0107716Y0035189D01*
X0107711Y0035166D01*
X0107707Y003514D01*
X0107702Y0035078D01*
X01077Y0035003D01*
X01073D01*
X01073Y0035042D01*
X0107293Y003514D01*
X0107289Y0035166D01*
X0107284Y0035189D01*
X0107278Y0035209D01*
X0107271Y0035226D01*
X0107264Y003524D01*
X0107255Y003525D01*
X0107745D01*
X0107736Y003524D01*
D02*
G37*
G36*
X0088357Y0031194D02*
X0087943D01*
X0087944Y0031196D01*
X0087945Y0031202D01*
X0087946Y0031213D01*
X0087948Y0031247D01*
X008795Y0031404D01*
X008835D01*
X0088357Y0031194D01*
D02*
G37*
G36*
X0085812Y003152D02*
X0085818Y0031452D01*
X0085828Y0031391D01*
X0085842Y0031339D01*
X008586Y0031295D01*
X0085882Y0031258D01*
X0085908Y003123D01*
X0085938Y003121D01*
X0085972Y0031198D01*
X008601Y0031194D01*
X008521D01*
X0085248Y0031198D01*
X0085282Y003121D01*
X0085312Y003123D01*
X0085338Y0031258D01*
X008536Y0031295D01*
X0085378Y0031339D01*
X0085392Y0031391D01*
X0085402Y0031452D01*
X0085408Y003152D01*
X008541Y0031597D01*
X008581D01*
X0085812Y003152D01*
D02*
G37*
G36*
X0083272D02*
X0083278Y0031452D01*
X0083288Y0031391D01*
X0083302Y0031339D01*
X008332Y0031295D01*
X0083342Y0031258D01*
X0083368Y003123D01*
X0083398Y003121D01*
X0083432Y0031198D01*
X008347Y0031194D01*
X008267D01*
X0082708Y0031198D01*
X0082742Y003121D01*
X0082772Y003123D01*
X0082798Y0031258D01*
X008282Y0031295D01*
X0082838Y0031339D01*
X0082852Y0031391D01*
X0082862Y0031452D01*
X0082868Y003152D01*
X008287Y0031597D01*
X008327D01*
X0083272Y003152D01*
D02*
G37*
G36*
X0080702D02*
X0080708Y0031452D01*
X0080718Y0031391D01*
X0080732Y0031339D01*
X008075Y0031295D01*
X0080772Y0031258D01*
X0080798Y003123D01*
X0080828Y003121D01*
X0080862Y0031198D01*
X00809Y0031194D01*
X00801D01*
X0080138Y0031198D01*
X0080172Y003121D01*
X0080202Y003123D01*
X0080228Y0031258D01*
X008025Y0031295D01*
X0080268Y0031339D01*
X0080282Y0031391D01*
X0080292Y0031452D01*
X0080298Y003152D01*
X00803Y0031597D01*
X00807D01*
X0080702Y003152D01*
D02*
G37*
G36*
X0078094Y0031511D02*
X0078118Y0031444D01*
X0078143Y0031386D01*
X0078171Y0031335D01*
X00782Y0031292D01*
X0078232Y0031257D01*
X0078265Y0031229D01*
X00783Y003121D01*
X0078337Y0031198D01*
X0078376Y0031194D01*
X007755D01*
X0077586Y0031198D01*
X0077617Y0031209D01*
X0077641Y0031229D01*
X007766Y0031255D01*
X0077672Y003129D01*
X0077679Y0031332D01*
X0077679Y0031382D01*
X0077673Y003144D01*
X0077662Y0031505D01*
X0077644Y0031579D01*
X0078072Y0031585D01*
X0078094Y0031511D01*
D02*
G37*
G36*
X0073048Y0031514D02*
X0073068Y0031447D01*
X007309Y0031388D01*
X0073114Y0031336D01*
X0073141Y0031293D01*
X007317Y0031257D01*
X0073202Y003123D01*
X0073235Y003121D01*
X0073272Y0031198D01*
X007331Y0031194D01*
X0072495D01*
X0072532Y0031198D01*
X0072563Y003121D01*
X0072588Y0031229D01*
X0072608Y0031257D01*
X0072622Y0031292D01*
X0072631Y0031335D01*
X0072635Y0031386D01*
X0072632Y0031445D01*
X0072625Y0031511D01*
X0072611Y0031586D01*
X0073031Y003159D01*
X0073048Y0031514D01*
D02*
G37*
G36*
X0070115Y0031439D02*
X0070245Y0031307D01*
X0070304Y0031258D01*
X0070358Y003122D01*
X0070407Y0031192D01*
X0070453Y0031176D01*
X0070494Y0031171D01*
X007053Y0031177D01*
X0070562Y0031194D01*
X0069926Y0030717D01*
X0069953Y0030745D01*
X0069968Y003078D01*
X0069972Y0030823D01*
X0069965Y0030872D01*
X0069946Y003093D01*
X0069915Y0030994D01*
X0069874Y0031066D01*
X0069821Y0031145D01*
X006968Y0031325D01*
X0070044Y0031522D01*
X0070115Y0031439D01*
D02*
G37*
G36*
X0088512Y0029099D02*
X0088478Y0029087D01*
X0088448Y0029067D01*
X0088422Y0029039D01*
X00884Y0029003D01*
X0088382Y0028959D01*
X0088368Y0028907D01*
X0088358Y0028847D01*
X0088352Y0028779D01*
X008835Y0028703D01*
X008795D01*
X0087948Y0028779D01*
X0087942Y0028847D01*
X0087932Y0028907D01*
X0087918Y0028959D01*
X00879Y0029003D01*
X0087878Y0029039D01*
X0087852Y0029067D01*
X0087822Y0029087D01*
X0087788Y0029099D01*
X008775Y0029103D01*
X008855D01*
X0088512Y0029099D01*
D02*
G37*
G36*
X0085972D02*
X0085938Y0029087D01*
X0085908Y0029067D01*
X0085882Y0029039D01*
X008586Y0029003D01*
X0085842Y0028959D01*
X0085828Y0028907D01*
X0085818Y0028847D01*
X0085812Y0028779D01*
X008581Y0028703D01*
X008541D01*
X0085408Y0028779D01*
X0085402Y0028847D01*
X0085392Y0028907D01*
X0085378Y0028959D01*
X008536Y0029003D01*
X0085338Y0029039D01*
X0085312Y0029067D01*
X0085282Y0029087D01*
X0085248Y0029099D01*
X008521Y0029103D01*
X008601D01*
X0085972Y0029099D01*
D02*
G37*
G36*
X0083432D02*
X0083398Y0029087D01*
X0083368Y0029067D01*
X0083342Y0029039D01*
X008332Y0029003D01*
X0083302Y0028959D01*
X0083288Y0028907D01*
X0083278Y0028847D01*
X0083272Y0028779D01*
X008327Y0028703D01*
X008287D01*
X0082868Y0028779D01*
X0082862Y0028847D01*
X0082852Y0028907D01*
X0082838Y0028959D01*
X008282Y0029003D01*
X0082798Y0029039D01*
X0082772Y0029067D01*
X0082742Y0029087D01*
X0082708Y0029099D01*
X008267Y0029103D01*
X008347D01*
X0083432Y0029099D01*
D02*
G37*
G36*
X0080892D02*
X0080858Y0029087D01*
X0080828Y0029067D01*
X0080802Y0029039D01*
X008078Y0029003D01*
X0080762Y0028959D01*
X0080748Y0028907D01*
X0080738Y0028847D01*
X0080732Y0028779D01*
X008073Y0028703D01*
X008033D01*
X0080328Y0028779D01*
X0080322Y0028847D01*
X0080312Y0028907D01*
X0080298Y0028959D01*
X008028Y0029003D01*
X0080258Y0029039D01*
X0080232Y0029067D01*
X0080202Y0029087D01*
X0080168Y0029099D01*
X008013Y0029103D01*
X008093D01*
X0080892Y0029099D01*
D02*
G37*
G36*
X0078352D02*
X0078318Y0029087D01*
X0078288Y0029067D01*
X0078262Y0029039D01*
X007824Y0029003D01*
X0078222Y0028959D01*
X0078208Y0028907D01*
X0078198Y0028847D01*
X0078192Y0028779D01*
X007819Y0028703D01*
X007779D01*
X0077788Y0028779D01*
X0077782Y0028847D01*
X0077772Y0028907D01*
X0077758Y0028959D01*
X007774Y0029003D01*
X0077718Y0029039D01*
X0077692Y0029067D01*
X0077662Y0029087D01*
X0077628Y0029099D01*
X007759Y0029103D01*
X007839D01*
X0078352Y0029099D01*
D02*
G37*
G36*
X0075812D02*
X0075778Y0029087D01*
X0075748Y0029067D01*
X0075722Y0029039D01*
X00757Y0029003D01*
X0075682Y0028959D01*
X0075668Y0028907D01*
X0075658Y0028847D01*
X0075652Y0028779D01*
X007565Y0028703D01*
X007525D01*
X0075248Y0028779D01*
X0075242Y0028847D01*
X0075232Y0028907D01*
X0075218Y0028959D01*
X00752Y0029003D01*
X0075178Y0029039D01*
X0075152Y0029067D01*
X0075122Y0029087D01*
X0075088Y0029099D01*
X007505Y0029103D01*
X007585D01*
X0075812Y0029099D01*
D02*
G37*
G36*
X0073272D02*
X0073238Y0029087D01*
X0073208Y0029067D01*
X0073182Y0029039D01*
X007316Y0029003D01*
X0073142Y0028959D01*
X0073128Y0028907D01*
X0073118Y0028847D01*
X0073112Y0028779D01*
X007311Y0028703D01*
X007271D01*
X0072708Y0028779D01*
X0072702Y0028847D01*
X0072692Y0028907D01*
X0072678Y0028959D01*
X007266Y0029003D01*
X0072638Y0029039D01*
X0072612Y0029067D01*
X0072582Y0029087D01*
X0072548Y0029099D01*
X007251Y0029103D01*
X007331D01*
X0073272Y0029099D01*
D02*
G37*
G36*
X0070732D02*
X0070698Y0029087D01*
X0070668Y0029067D01*
X0070642Y0029039D01*
X007062Y0029003D01*
X0070602Y0028959D01*
X0070588Y0028907D01*
X0070578Y0028847D01*
X0070572Y0028779D01*
X007057Y0028703D01*
X007017D01*
X0070168Y0028779D01*
X0070162Y0028847D01*
X0070152Y0028907D01*
X0070138Y0028959D01*
X007012Y0029003D01*
X0070098Y0029039D01*
X0070072Y0029067D01*
X0070042Y0029087D01*
X0070008Y0029099D01*
X006997Y0029103D01*
X007077D01*
X0070732Y0029099D01*
D02*
G37*
G36*
X0088353Y0028109D02*
X0088363Y0028045D01*
X0088379Y0027982D01*
X0088402Y0027918D01*
X0088431Y0027854D01*
X0088467Y002779D01*
X0088509Y0027727D01*
X0088558Y0027663D01*
X0088613Y0027599D01*
X0088675Y0027536D01*
X0087625D01*
X0087687Y0027599D01*
X0087742Y0027663D01*
X0087791Y0027727D01*
X0087833Y002779D01*
X0087869Y0027854D01*
X0087898Y0027918D01*
X0087921Y0027982D01*
X0087937Y0028045D01*
X0087947Y0028109D01*
X008795Y0028173D01*
X008835D01*
X0088353Y0028109D01*
D02*
G37*
G36*
X0085813D02*
X0085823Y0028045D01*
X0085839Y0027982D01*
X0085862Y0027918D01*
X0085891Y0027854D01*
X0085927Y002779D01*
X0085969Y0027727D01*
X0086018Y0027663D01*
X0086073Y0027599D01*
X0086135Y0027536D01*
X0085085D01*
X0085147Y0027599D01*
X0085202Y0027663D01*
X0085251Y0027727D01*
X0085293Y002779D01*
X0085329Y0027854D01*
X0085358Y0027918D01*
X0085381Y0027982D01*
X0085397Y0028045D01*
X0085407Y0028109D01*
X008541Y0028173D01*
X008581D01*
X0085813Y0028109D01*
D02*
G37*
G36*
X0083273D02*
X0083283Y0028045D01*
X0083299Y0027982D01*
X0083322Y0027918D01*
X0083351Y0027854D01*
X0083387Y002779D01*
X0083429Y0027727D01*
X0083478Y0027663D01*
X0083533Y0027599D01*
X0083595Y0027536D01*
X0082545D01*
X0082607Y0027599D01*
X0082662Y0027663D01*
X0082711Y0027727D01*
X0082753Y002779D01*
X0082789Y0027854D01*
X0082818Y0027918D01*
X0082841Y0027982D01*
X0082857Y0028045D01*
X0082867Y0028109D01*
X008287Y0028173D01*
X008327D01*
X0083273Y0028109D01*
D02*
G37*
G36*
X0080733D02*
X0080743Y0028045D01*
X0080759Y0027982D01*
X0080782Y0027918D01*
X0080811Y0027854D01*
X0080847Y002779D01*
X0080889Y0027727D01*
X0080938Y0027663D01*
X0080993Y0027599D01*
X0081055Y0027536D01*
X0080005D01*
X0080067Y0027599D01*
X0080122Y0027663D01*
X0080171Y0027727D01*
X0080213Y002779D01*
X0080249Y0027854D01*
X0080278Y0027918D01*
X0080301Y0027982D01*
X0080317Y0028045D01*
X0080327Y0028109D01*
X008033Y0028173D01*
X008073D01*
X0080733Y0028109D01*
D02*
G37*
G36*
X0078193D02*
X0078203Y0028045D01*
X0078219Y0027982D01*
X0078242Y0027918D01*
X0078271Y0027854D01*
X0078307Y002779D01*
X0078349Y0027727D01*
X0078398Y0027663D01*
X0078453Y0027599D01*
X0078515Y0027536D01*
X0077465D01*
X0077527Y0027599D01*
X0077582Y0027663D01*
X0077631Y0027727D01*
X0077673Y002779D01*
X0077709Y0027854D01*
X0077738Y0027918D01*
X0077761Y0027982D01*
X0077777Y0028045D01*
X0077787Y0028109D01*
X007779Y0028173D01*
X007819D01*
X0078193Y0028109D01*
D02*
G37*
G36*
X0075653D02*
X0075663Y0028045D01*
X0075679Y0027982D01*
X0075702Y0027918D01*
X0075731Y0027854D01*
X0075767Y002779D01*
X0075809Y0027727D01*
X0075858Y0027663D01*
X0075913Y0027599D01*
X0075975Y0027536D01*
X0074925D01*
X0074987Y0027599D01*
X0075042Y0027663D01*
X0075091Y0027727D01*
X0075133Y002779D01*
X0075169Y0027854D01*
X0075198Y0027918D01*
X0075221Y0027982D01*
X0075237Y0028045D01*
X0075247Y0028109D01*
X007525Y0028173D01*
X007565D01*
X0075653Y0028109D01*
D02*
G37*
G36*
X0073113D02*
X0073123Y0028045D01*
X0073139Y0027982D01*
X0073162Y0027918D01*
X0073191Y0027854D01*
X0073227Y002779D01*
X0073269Y0027727D01*
X0073318Y0027663D01*
X0073373Y0027599D01*
X0073435Y0027536D01*
X0072385D01*
X0072447Y0027599D01*
X0072502Y0027663D01*
X0072551Y0027727D01*
X0072593Y002779D01*
X0072629Y0027854D01*
X0072658Y0027918D01*
X0072681Y0027982D01*
X0072697Y0028045D01*
X0072707Y0028109D01*
X007271Y0028173D01*
X007311D01*
X0073113Y0028109D01*
D02*
G37*
G36*
X0070573D02*
X0070583Y0028045D01*
X0070599Y0027982D01*
X0070622Y0027918D01*
X0070651Y0027854D01*
X0070687Y002779D01*
X0070729Y0027727D01*
X0070778Y0027663D01*
X0070833Y0027599D01*
X0070895Y0027536D01*
X0069845D01*
X0069907Y0027599D01*
X0069962Y0027663D01*
X0070011Y0027727D01*
X0070053Y002779D01*
X0070089Y0027854D01*
X0070118Y0027918D01*
X0070141Y0027982D01*
X0070157Y0028045D01*
X0070167Y0028109D01*
X007017Y0028173D01*
X007057D01*
X0070573Y0028109D01*
D02*
G37*
G36*
X0090941Y0028145D02*
X0090931Y002809D01*
X0090929Y0028034D01*
X0090936Y0027976D01*
X0090951Y0027917D01*
X0090974Y0027857D01*
X0091006Y0027795D01*
X0091046Y0027732D01*
X0091094Y0027668D01*
X009115Y0027602D01*
X0091215Y0027536D01*
X0090165Y0027536D01*
X0090218Y0027591D01*
X0090269Y002765D01*
X0090315Y0027713D01*
X0090359Y0027778D01*
X00904Y0027848D01*
X0090437Y002792D01*
X0090471Y0027996D01*
X0090529Y0028159D01*
X0090554Y0028245D01*
X0090941Y0028145D01*
D02*
G37*
G36*
X0094201Y0027688D02*
X0094158Y0027641D01*
X009412Y0027589D01*
X0094086Y0027532D01*
X0094057Y0027471D01*
X0094033Y0027405D01*
X0094013Y0027335D01*
X0093998Y002726D01*
X0093987Y002718D01*
X0093981Y0027096D01*
X009398Y0027007D01*
X0093238Y002775D01*
X0093326Y0027751D01*
X009341Y0027757D01*
X009349Y0027768D01*
X0093565Y0027783D01*
X0093635Y0027803D01*
X0093701Y0027827D01*
X0093762Y0027856D01*
X0093819Y002789D01*
X0093871Y0027928D01*
X0093918Y0027971D01*
X0094201Y0027688D01*
D02*
G37*
D14*
X0120254Y00295D02*
G03*
X0121526Y0030026I0J00018D01*
G01*
X0124026Y0040474D02*
G03*
X0122754Y0041I-0001271J-0001274D01*
G01*
X0070154Y0031001D02*
G03*
X0068542Y0032I-0001612J-0000801D01*
G01*
X0110974Y0037527D02*
G03*
X0112246Y0037I0001272J0001273D01*
G01*
X011053Y003797D02*
G03*
X0109254Y00385I-0001276J-000127D01*
G01*
X0046746D02*
G03*
X0045474Y0037974I0J-00018D01*
G01*
X007291Y0031032D02*
G03*
X0072381Y0032307I-00018J0D01*
G01*
X0127499Y0037001D02*
G03*
X01275Y0037I0001271J0001275D01*
G01*
X0126974Y0035474D02*
G03*
X01275Y0036746I-0001274J0001271D01*
G01*
X007545Y0031304D02*
G03*
X0074921Y0032579I-00018J0D01*
G01*
X0112527Y0039473D02*
G03*
X0111254Y004I-0001273J-0001273D01*
G01*
X0104254Y00315D02*
G03*
X0105526Y0032026I0J00018D01*
G01*
X0094446Y00315D02*
G03*
X0093174Y0030974I0J-00018D01*
G01*
X0091216Y0029016D02*
G03*
X009069Y0027744I0001274J-0001271D01*
G01*
X0037974Y0032526D02*
G03*
X0039246Y0032I0001271J0001274D01*
G01*
X0038246Y004D02*
G03*
X0036974Y0039474I0J-00018D01*
G01*
X0118854Y0037D02*
G03*
X0120126Y0037526I0J00018D01*
G01*
X0096476Y00295D02*
G03*
X0095204Y0028974I0J-00018D01*
G01*
X0072217Y0032471D02*
G03*
X0070942Y0033I-0001275J-0001271D01*
G01*
X00345Y0036746D02*
G03*
X0035026Y0035474I00018J0D01*
G01*
X0057334Y0034248D02*
G03*
X0058246Y0034I0000912J0001552D01*
G01*
X0074029Y0033471D02*
G03*
X0072754Y0034I-0001275J-0001271D01*
G01*
X0077529Y0036471D02*
G03*
X0076254Y0037I-0001275J-0001271D01*
G01*
X0090246Y00335D02*
G03*
X0088974Y0032974I0J-00018D01*
G01*
X0094499Y0036999D02*
G03*
X00945Y0037I-0001274J0001271D01*
G01*
X0092754Y0036D02*
G03*
X0094026Y0036526I0J00018D01*
G01*
X0089746Y0036D02*
G03*
X0088474Y0035474I0J-00018D01*
G01*
X0122346Y0039D02*
G03*
X0121074Y0038474I0J-00018D01*
G01*
X0086136Y0033136D02*
G03*
X008561Y0031864I0001274J-0001271D01*
G01*
X0083974Y0034474D02*
G03*
X00845Y0035746I-0001274J0001271D01*
G01*
X0083596Y0034096D02*
G03*
X008307Y0032824I0001274J-0001271D01*
G01*
X0065974Y0035526D02*
G03*
X0067246Y0035I0001271J0001274D01*
G01*
X01027Y00335D02*
G03*
X01045Y00353I0J00018D01*
G01*
X0113477Y0037D02*
G03*
X011348Y0037I0J00018D01*
G01*
X0056974Y0034526D02*
G03*
X0057334Y0034248I0001271J0001274D01*
G01*
X0106974Y0033474D02*
G03*
X01075Y0034746I-0001274J0001271D01*
G01*
X0047974Y0033526D02*
G03*
X0049246Y0033I0001271J0001274D01*
G01*
X00805Y0032754D02*
G03*
X0079971Y0034029I-00018J0D01*
G01*
X0088676Y0032676D02*
G03*
X008815Y0031404I0001274J-0001271D01*
G01*
X0075185Y0034469D02*
G03*
X0073909Y0035I-0001276J-0001269D01*
G01*
X0077982Y0031005D02*
G03*
X0077457Y0032198I-0001798J-000008D01*
G01*
X01175Y0041D02*
X0122754D01*
X01275Y0036746D02*
Y0037D01*
X0124026Y0040474D02*
X0127499Y0037001D01*
X0096476Y00295D02*
X0120254D01*
X0121526Y0030026D02*
X0126974Y0035474D01*
X011053Y003797D02*
X0110974Y0037527D01*
X0072217Y0032471D02*
X0072381Y0032307D01*
X0046746Y00385D02*
X0109254D01*
X0039246Y0032D02*
X0068542D01*
X0112527Y0039473D02*
X0113Y0039D01*
X00345Y0036746D02*
Y0037D01*
X0070154Y0031D02*
X007037Y00308D01*
X00445Y0037D02*
X0045474Y0037974D01*
X0074029Y0033471D02*
X0074921Y0032579D01*
X0075185Y0034469D02*
X0077457Y0032198D01*
X0112246Y0037D02*
X0113477D01*
X0120126Y0037526D02*
X0121074Y0038474D01*
X0122346Y0039D02*
X0123D01*
X009323Y0027D02*
X0095204Y0028974D01*
X00345Y0037D02*
X0036974Y0039474D01*
X00745Y0037D02*
X0076254D01*
X00805Y0031D02*
Y0032754D01*
Y0031D02*
X008053Y00308D01*
X0077529Y0036471D02*
X0079971Y0034029D01*
X00845Y0035746D02*
Y0037D01*
X0089746Y0036D02*
X0092754D01*
X008815Y00308D02*
Y0031404D01*
X01045Y00353D02*
Y0037D01*
X0088676Y0032676D02*
X0088974Y0032974D01*
X0105526Y0032026D02*
X0106974Y0033474D01*
X009069Y0027D02*
Y0027744D01*
X0094446Y00315D02*
X0104254D01*
X00445Y0037D02*
X0047974Y0033526D01*
X00545Y0037D02*
X0056974Y0034526D01*
X007545Y0031D02*
X007545Y00308D01*
X0067246Y0035D02*
X0073909D01*
X00645Y0037D02*
X0065974Y0035526D01*
X011348Y0037D02*
X0118854D01*
X0038246Y004D02*
X0111254D01*
X0049246Y0033D02*
X0070942D01*
X0077982Y0031D02*
X007799Y00308D01*
X0077982Y0031D02*
Y0031005D01*
X008307Y00308D02*
Y0032824D01*
X0083596Y0034096D02*
X0083974Y0034474D01*
X0086136Y0033136D02*
X0088474Y0035474D01*
X008561Y00308D02*
Y0031864D01*
X007291Y0031D02*
X007291Y00308D01*
X0090246Y00335D02*
X01027D01*
X0094026Y0036526D02*
X0094499Y0036999D01*
X0091216Y0029016D02*
X0093174Y0030974D01*
X01075Y0034746D02*
Y00355D01*
X0058246Y0034D02*
X0072754D01*
X0035026Y0035474D02*
X0037974Y0032526D01*
X007291Y0031D02*
Y0031032D01*
X0070154Y0031D02*
Y0031001D01*
X007545Y0031D02*
Y0031304D01*
X007037Y0027D02*
Y00295D01*
X007291Y0027D02*
Y00295D01*
X008307Y0027D02*
Y00295D01*
X007545Y0027D02*
Y00295D01*
X007799Y0027D02*
Y0029536D01*
X008053Y0027D02*
Y00295D01*
X008815Y0027D02*
Y00295D01*
X008561Y0027D02*
Y00295D01*
D15*
X007037Y0027D02*
D03*
X007291D02*
D03*
X007545D02*
D03*
X007799D02*
D03*
X008053D02*
D03*
X008307D02*
D03*
X008561D02*
D03*
X008815D02*
D03*
X009323D02*
D03*
X009069D02*
D03*
D16*
X01075Y00355D02*
D03*
X01275Y0037D02*
D03*
X0123Y0039D02*
D03*
X01175Y0041D02*
D03*
X0113Y0039D02*
D03*
X01045Y0037D02*
D03*
X00945D02*
D03*
X00845D02*
D03*
X00745D02*
D03*
X00645D02*
D03*
X00545D02*
D03*
X00445D02*
D03*
X00345D02*
D03*
X01075Y00365D02*
D03*
D17*
X008815Y00295D02*
D03*
Y00308D02*
D03*
X008561Y00295D02*
D03*
Y00308D02*
D03*
X008307Y00295D02*
D03*
Y00308D02*
D03*
X008053Y00295D02*
D03*
Y00308D02*
D03*
X007799Y00295D02*
D03*
Y00308D02*
D03*
X007545Y00295D02*
D03*
Y00308D02*
D03*
X007291Y00295D02*
D03*
Y00308D02*
D03*
X007037Y00295D02*
D03*
Y00308D02*
D03*
D18*
X01075Y00355D02*
Y00365D01*
M02*
