M48
;Layer_Color=9474304
;FILE_FORMAT=4:3
METRIC,TZ
;TYPE=PLATED
T01F00S00C0.300
T02F00S00C0.650
;TYPE=NON_PLATED
T03F00S00C3.000
%
T01
X40000Y35000
X41000
X42000
X52800Y33500
X53600
X62800
X63600
X72800
X73600
X82800
X83600
X92800
X93600
X102800
X103600
X112800
X113600
X122000Y35400
Y36600
X123500Y47800
Y48600
Y57800
Y58600
Y67800
Y68600
Y77800
Y78600
X112500Y72600
X111600
X100500Y72250
X94500
X91750Y71750
X90000Y70000
X86500Y71750
X87500Y74500
X86811Y75797
X85500Y76750
X85250Y74750
X83500Y73000
X80300
X80700Y71100
X82000Y68750
X82500Y67000
X83775Y65291
X86000Y64300
Y67500
X83500Y58750
X79750
X81000Y52500
X86000
X90000Y50000
X89750Y58750
X95000Y60000
X105000
X115000
X110000Y50000
X100000
X105000Y40000
X95000
X85000
X81487Y75087
X80600Y75700
Y76800
X81700
X88750Y77500
X76000Y75500
X72800Y75800
X75100Y72300
X78500Y72250
X79100Y69200
Y64300
X74000Y58800
X72000Y57200
X70500
Y55700
X72000
Y54200
X70500
X70000Y50000
X76000Y52500
X75000Y40000
X65000
X55000
X46000Y49750
X44750
Y51000
X46000
X44750Y52250
Y54750
Y56000
X46000
Y57250
X44750
X45000Y60000
X55000
X51950Y67150
X51600Y72600
X52500
X38500Y73400
Y74200
Y64200
Y63400
Y54200
Y53400
Y44200
Y43400
Y83400
Y84200
Y93400
Y94200
X45000Y100000
X51600Y102600
X52500
X55000Y100000
X51950Y97150
X50000Y90000
X60000
X65000Y100000
X75000
X76850Y83750
X71000Y83500
X45000Y80000
X40400Y105300
Y106600
X39919Y114851
Y116125
X39982Y117250
X48400Y118500
X49200
X58400
X59200
X60000Y110000
X50000
X69200Y117500
Y118500
X78400
X79200
X88400
X89200
X98400
X99200
X108400
X109200
X110000Y110000
X111600Y102600
X112500
X115000Y100000
X105000
X95000
X96000Y92000
X93500
X91000Y92000
X88500
X90000Y90000
X85500Y83750
X85000Y100000
X82500Y102600
X81600
X80000Y110000
X90000
X100000
X110000Y90000
X115000Y80000
X105000
X123500Y87800
Y88600
Y97800
Y98600
Y107700
X122300Y117000
X121300
X120000
T02
X89538Y86996
X90808
Y88266
X89538
X92078
Y86996
T03
X116000Y41000
X46000
X72809Y70264
X46000Y111000
X116000
X89192Y81736
M30
